<svg width="28" height="28" viewBox="0 0 28 28" fill="none" xmlns="http://www.w3.org/2000/svg">
<path opacity="0.4" d="M9.04169 6.41658C9.04169 3.67817 11.2616 1.45825 14 1.45825C16.7384 1.45825 18.9584 3.67817 18.9584 6.41658V7.58325C18.9584 10.3217 16.7384 12.5416 14 12.5416C11.2616 12.5416 9.04169 10.3217 9.04169 7.58325V6.41658Z" fill="black"/>
<path opacity="0.4" d="M11.6667 14.2917C11.8987 14.2917 12.1213 14.3839 12.2854 14.5481L14 16.2626L15.7147 14.5481C15.8787 14.3839 16.1013 14.2917 16.3334 14.2917C17.9289 14.2917 19.279 14.2917 20.2905 14.4277C21.3406 14.5688 22.2247 14.8709 22.927 15.5732C23.6292 16.2754 23.9313 17.1595 24.0724 18.2098C24.2084 19.2211 24.2084 20.5072 24.2084 22.1027V25.6667C24.2084 26.15 23.8166 26.5417 23.3334 26.5417H4.66669C4.18344 26.5417 3.79169 26.15 3.79169 25.6667V22.1027C3.79166 20.5072 3.79164 19.2211 3.92763 18.2096C4.06882 17.1595 4.37086 16.2754 5.0731 15.5732C5.77534 14.8709 6.65952 14.5688 7.70965 14.4277C8.7211 14.2917 10.0712 14.2917 11.6667 14.2917Z" fill="black"/>
<path d="M10.7916 19.0792C12.1383 19.4601 13.125 20.6982 13.125 22.1668V23.3335C13.125 23.8167 12.7332 24.2085 12.25 24.2085C11.7667 24.2085 11.375 23.8167 11.375 23.3335V22.1668C11.375 21.3614 10.7221 20.7085 9.91665 20.7085C9.11123 20.7085 8.45831 21.3614 8.45831 22.1668V23.3335C8.45831 23.8167 8.06656 24.2085 7.58331 24.2085C7.10007 24.2085 6.70831 23.8167 6.70831 23.3335V22.1668C6.70831 20.6982 7.69502 19.4601 9.04165 19.0792V14.3226C9.57355 14.3014 10.1592 14.2947 10.7916 14.2927V19.0792Z" fill="black"/>
<path d="M17.7917 20.9427C17.2686 21.2452 16.9167 21.8108 16.9167 22.4585C16.9167 23.425 17.7002 24.2085 18.6667 24.2085C19.6332 24.2085 20.4167 23.425 20.4167 22.4585C20.4167 21.8108 20.0648 21.2452 19.5417 20.9427V14.354C19.0196 14.3177 18.4335 14.3026 17.7917 14.2964V20.9427Z" fill="black"/>
</svg>
