<svg width="20" height="20" viewBox="0 0 20 20" fill="none" xmlns="http://www.w3.org/2000/svg">
<path d="M16.6667 18.3333V15.8333C16.6667 13.4763 16.6667 12.2978 15.9344 11.5655C15.2022 10.8333 14.0237 10.8333 11.6667 10.8333L9.99999 12.4999L8.33333 10.8333C5.9763 10.8333 4.7978 10.8333 4.06556 11.5655C3.33333 12.2978 3.33333 13.4763 3.33333 15.8333V18.3333" stroke="black" stroke-width="1.21053" stroke-linecap="round" stroke-linejoin="round"/>
<path opacity="0.4" d="M7.08334 10.8333V14.1666M7.08334 14.1666C8.00381 14.1666 8.75001 14.9128 8.75001 15.8333V16.6666M7.08334 14.1666C6.16286 14.1666 5.41667 14.9128 5.41667 15.8333V16.6666" stroke="black" stroke-width="1.21053" stroke-linecap="round" stroke-linejoin="round"/>
<path d="M12.9167 5.41675V4.58341C12.9167 2.97258 11.6108 1.66675 9.99999 1.66675C8.38916 1.66675 7.08333 2.97258 7.08333 4.58341V5.41675C7.08333 7.02758 8.38916 8.33341 9.99999 8.33341C11.6108 8.33341 12.9167 7.02758 12.9167 5.41675Z" stroke="black" stroke-width="1.21053" stroke-linecap="round" stroke-linejoin="round"/>
<path d="M13.3333 10.8333V15.4166M13.3333 15.4166C12.9882 15.4166 12.7083 15.6964 12.7083 16.0416C12.7083 16.3868 12.9882 16.6666 13.3333 16.6666C13.6785 16.6666 13.9583 16.3868 13.9583 16.0416C13.9583 15.6964 13.6785 15.4166 13.3333 15.4166Z" stroke="black" stroke-width="1.21053" stroke-linecap="round" stroke-linejoin="round"/>
</svg>
