<svg width="20" height="20" viewBox="0 0 20 20" fill="none" xmlns="http://www.w3.org/2000/svg">
<path d="M13.335 11.25C13.335 11.9403 13.8946 12.5 14.585 12.5C15.2753 12.5 15.835 11.9403 15.835 11.25C15.835 10.5597 15.2753 10 14.585 10C13.8946 10 13.335 10.5597 13.335 11.25Z" stroke="black" stroke-width="1.25"/>
<path d="M1.6683 9.16667C1.6683 6.02397 1.6683 4.45262 2.64462 3.47631C3.62093 2.5 5.19228 2.5 8.33501 2.5H11.6683C12.4433 2.5 12.8308 2.5 13.1487 2.58518C14.0114 2.81635 14.6853 3.49022 14.9164 4.35295C15.0017 4.67087 15.0017 5.05836 15.0017 5.83333M8.33501 5.83333H13.335C15.692 5.83333 16.8705 5.83333 17.6028 6.56557C18.335 7.2978 18.335 8.47633 18.335 10.8333V12.5C18.335 14.857 18.335 16.0355 17.6028 16.7677C16.8705 17.5 15.692 17.5 13.335 17.5H10.4171" stroke="black" stroke-width="1.25" stroke-linecap="round"/>
<path opacity="0.4" d="M8.33332 14.1666H4.99999M4.99999 14.1666H1.66666M4.99999 14.1666V17.4999M4.99999 14.1666V10.8333" stroke="black" stroke-width="1.25" stroke-linecap="round"/>
</svg>
