<svg width="24" height="25" viewBox="0 0 24 25" fill="none" xmlns="http://www.w3.org/2000/svg">
<mask id="mask0_646_15100" style="mask-type:alpha" maskUnits="userSpaceOnUse" x="0" y="0" width="24" height="25">
<rect y="0.402832" width="24" height="24" fill="#D9D9D9"/>
</mask>
<g mask="url(#mask0_646_15100)">
<path d="M5.3077 21.9028C4.80257 21.9028 4.375 21.7278 4.025 21.3778C3.675 21.0278 3.5 20.6002 3.5 20.0951V6.71055C3.5 6.20542 3.675 5.77785 4.025 5.42785C4.375 5.07785 4.80257 4.90285 5.3077 4.90285H6.69233V3.55668C6.69233 3.33746 6.76573 3.15445 6.91253 3.00765C7.05931 2.86087 7.24232 2.78748 7.46155 2.78748C7.68077 2.78748 7.86378 2.86087 8.01058 3.00765C8.15736 3.15445 8.23075 3.33746 8.23075 3.55668V4.90285H15.8077V3.53745C15.8077 3.32463 15.8794 3.14643 16.023 3.00285C16.1666 2.85927 16.3448 2.78748 16.5576 2.78748C16.7704 2.78748 16.9486 2.85927 17.0922 3.00285C17.2358 3.14643 17.3076 3.32463 17.3076 3.53745V4.90285H18.6923C19.1974 4.90285 19.625 5.07785 19.975 5.42785C20.325 5.77785 20.5 6.20542 20.5 6.71055V20.0951C20.5 20.6002 20.325 21.0278 19.975 21.3778C19.625 21.7278 19.1974 21.9028 18.6923 21.9028H5.3077ZM5.3077 20.4028H18.6923C18.7692 20.4028 18.8397 20.3708 18.9038 20.3067C18.9679 20.2426 19 20.172 19 20.0951V10.7106H4.99997V20.0951C4.99997 20.172 5.03202 20.2426 5.09612 20.3067C5.16024 20.3708 5.23077 20.4028 5.3077 20.4028ZM4.99997 9.21058H19V6.71055C19 6.63362 18.9679 6.56309 18.9038 6.49898C18.8397 6.43488 18.7692 6.40283 18.6923 6.40283H5.3077C5.23077 6.40283 5.16024 6.43488 5.09612 6.49898C5.03202 6.56309 4.99997 6.63362 4.99997 6.71055V9.21058ZM12 14.4798C11.7551 14.4798 11.5465 14.3935 11.374 14.2211C11.2016 14.0487 11.1154 13.84 11.1154 13.5952C11.1154 13.3503 11.2016 13.1416 11.374 12.9692C11.5465 12.7968 11.7551 12.7106 12 12.7106C12.2448 12.7106 12.4535 12.7968 12.6259 12.9692C12.7984 13.1416 12.8846 13.3503 12.8846 13.5952C12.8846 13.84 12.7984 14.0487 12.6259 14.2211C12.4535 14.3935 12.2448 14.4798 12 14.4798ZM7.99998 14.4798C7.75511 14.4798 7.54646 14.3935 7.37403 14.2211C7.20159 14.0487 7.11538 13.84 7.11538 13.5952C7.11538 13.3503 7.20159 13.1416 7.37403 12.9692C7.54646 12.7968 7.75511 12.7106 7.99998 12.7106C8.24484 12.7106 8.45349 12.7968 8.62593 12.9692C8.79836 13.1416 8.88458 13.3503 8.88458 13.5952C8.88458 13.84 8.79836 14.0487 8.62593 14.2211C8.45349 14.3935 8.24484 14.4798 7.99998 14.4798ZM16 14.4798C15.7551 14.4798 15.5465 14.3935 15.374 14.2211C15.2016 14.0487 15.1154 13.84 15.1154 13.5952C15.1154 13.3503 15.2016 13.1416 15.374 12.9692C15.5465 12.7968 15.7551 12.7106 16 12.7106C16.2448 12.7106 16.4535 12.7968 16.6259 12.9692C16.7984 13.1416 16.8846 13.3503 16.8846 13.5952C16.8846 13.84 16.7984 14.0487 16.6259 14.2211C16.4535 14.3935 16.2448 14.4798 16 14.4798ZM12 18.4028C11.7551 18.4028 11.5465 18.3166 11.374 18.1442C11.2016 17.9717 11.1154 17.7631 11.1154 17.5182C11.1154 17.2734 11.2016 17.0647 11.374 16.8923C11.5465 16.7198 11.7551 16.6336 12 16.6336C12.2448 16.6336 12.4535 16.7198 12.6259 16.8923C12.7984 17.0647 12.8846 17.2734 12.8846 17.5182C12.8846 17.7631 12.7984 17.9717 12.6259 18.1442C12.4535 18.3166 12.2448 18.4028 12 18.4028ZM7.99998 18.4028C7.75511 18.4028 7.54646 18.3166 7.37403 18.1442C7.20159 17.9717 7.11538 17.7631 7.11538 17.5182C7.11538 17.2734 7.20159 17.0647 7.37403 16.8923C7.54646 16.7198 7.75511 16.6336 7.99998 16.6336C8.24484 16.6336 8.45349 16.7198 8.62593 16.8923C8.79836 17.0647 8.88458 17.2734 8.88458 17.5182C8.88458 17.7631 8.79836 17.9717 8.62593 18.1442C8.45349 18.3166 8.24484 18.4028 7.99998 18.4028ZM16 18.4028C15.7551 18.4028 15.5465 18.3166 15.374 18.1442C15.2016 17.9717 15.1154 17.7631 15.1154 17.5182C15.1154 17.2734 15.2016 17.0647 15.374 16.8923C15.5465 16.7198 15.7551 16.6336 16 16.6336C16.2448 16.6336 16.4535 16.7198 16.6259 16.8923C16.7984 17.0647 16.8846 17.2734 16.8846 17.5182C16.8846 17.7631 16.7984 17.9717 16.6259 18.1442C16.4535 18.3166 16.2448 18.4028 16 18.4028Z" fill="#AEAEB2"/>
</g>
</svg>
