<svg width="100" height="76" viewBox="0 0 100 76" fill="none" xmlns="http://www.w3.org/2000/svg">
<g clip-path="url(#clip0_308_1577)">
<path d="M94.39 69.6653L16.009 85.3625L16.3966 87.2976L94.7775 71.6003L94.39 69.6653Z" fill="black"/>
<path d="M34.7994 41.212L20.0527 44.1653L27.8291 82.9951L42.5758 80.0418L34.7994 41.212Z" fill="#409CFF"/>
<path d="M54.7946 37.2078L40.048 40.1611L47.8244 78.9909L62.571 76.0377L54.7946 37.2078Z" fill="#409CFF"/>
<path d="M74.7902 33.2032L60.0436 36.1565L67.82 74.9863L82.5666 72.033L74.7902 33.2032Z" fill="#409CFF"/>
<path opacity="0.08" d="M38.8662 61.5184L24.1195 64.4717L24.4397 66.0705L39.1863 63.1172L38.8662 61.5184Z" fill="#5656FF"/>
<path opacity="0.08" d="M58.8614 57.514L44.1147 60.4673L44.4349 62.0661L59.1816 59.1128L58.8614 57.514Z" fill="#5656FF"/>
<path opacity="0.08" d="M78.857 53.5094L64.1104 56.4626L64.4306 58.0615L79.1772 55.1082L78.857 53.5094Z" fill="#5656FF"/>
<path d="M78.5001 51.7269L63.7534 54.6802L64.1103 56.4621L78.8569 53.5088L78.5001 51.7269Z" fill="#062C8B"/>
<path d="M58.5043 55.7313L43.7577 58.6846L44.1146 60.4665L58.8612 57.5132L58.5043 55.7313Z" fill="#062C8B"/>
<path d="M38.5092 59.7359L23.7626 62.6892L24.1194 64.4712L38.8661 61.5179L38.5092 59.7359Z" fill="#062C8B"/>
<path opacity="0.08" d="M21.3907 43.8973L20.0527 44.1653L27.8094 82.8965L29.1474 82.6285L21.3907 43.8973Z" fill="#5656FF"/>
<path opacity="0.08" d="M34.7994 41.212L33.4614 41.48L41.2181 80.2112L42.556 79.9432L34.7994 41.212Z" fill="#5656FF"/>
<path opacity="0.08" d="M41.3877 39.8927L40.0497 40.1606L47.8063 78.8919L49.1443 78.6239L41.3877 39.8927Z" fill="#5656FF"/>
<path opacity="0.08" d="M54.7964 37.2074L53.4584 37.4753L61.215 76.2066L62.553 75.9386L54.7964 37.2074Z" fill="#5656FF"/>
<path opacity="0.08" d="M61.3816 35.8885L60.0436 36.1565L67.8002 74.8877L69.1382 74.6198L61.3816 35.8885Z" fill="#5656FF"/>
<path opacity="0.08" d="M74.7904 33.2032L73.4524 33.4712L81.209 72.2024L82.547 71.9345L74.7904 33.2032Z" fill="#5656FF"/>
<path d="M81.3822 31.8828L73.4559 33.4702L74.0724 36.5485L81.9987 34.9611L81.3822 31.8828Z" fill="#062C8B"/>
<path d="M88.5422 67.6348L80.616 69.2222L81.2325 72.3005L89.1587 70.7131L88.5422 67.6348Z" fill="#062C8B"/>
<path d="M80.6609 35.2301L75.41 36.2817L81.9533 68.9544L87.2042 67.9028L80.6609 35.2301Z" fill="#0031AA"/>
<path d="M61.3846 35.888L53.4584 37.4753L54.0749 40.5536L62.0011 38.9663L61.3846 35.888Z" fill="#062C8B"/>
<path d="M68.5446 71.6397L60.6183 73.2271L61.2348 76.3053L69.161 74.718L68.5446 71.6397Z" fill="#062C8B"/>
<path d="M60.664 39.235L55.4131 40.2866L61.9564 72.9592L67.2073 71.9076L60.664 39.235Z" fill="#0031AA"/>
<path d="M41.3877 39.8926L33.4614 41.48L34.0779 44.5583L42.0042 42.9709L41.3877 39.8926Z" fill="#062C8B"/>
<path d="M48.5477 75.6443L40.6215 77.2317L41.2379 80.31L49.1642 78.7226L48.5477 75.6443Z" fill="#062C8B"/>
<path d="M40.6669 43.2397L35.416 44.2913L41.9593 76.9639L47.2102 75.9123L40.6669 43.2397Z" fill="#0031AA"/>
<path d="M21.3903 43.8975L13.464 45.4849L14.0805 48.5632L22.0067 46.9758L21.3903 43.8975Z" fill="#062C8B"/>
<path d="M20.6695 47.2446L15.4186 48.2961L21.9619 80.9688L27.2128 79.9172L20.6695 47.2446Z" fill="#0031AA"/>
<path d="M83.135 30.1278L11.1703 44.54L11.4408 45.8909L83.4056 31.4786L83.135 30.1278Z" fill="#358DEB"/>
<path d="M81.9759 24.3394L10.0111 38.7517L10.2816 40.1026L82.2464 25.6903L81.9759 24.3394Z" fill="#358DEB"/>
<path d="M81.2265 25.8955L11.3021 39.8992L12.19 44.3326L82.1144 30.3289L81.2265 25.8955Z" fill="#409CFF"/>
<path opacity="0.08" d="M81.2265 25.8955L11.3021 39.8992L11.4634 40.7044L81.3878 26.7008L81.2265 25.8955Z" fill="#5656FF"/>
<path opacity="0.08" d="M81.9536 29.5264L12.0292 43.53L12.1904 44.3353L82.1148 30.3316L81.9536 29.5264Z" fill="#5656FF"/>
<path d="M33.4208 50.7096L35.2732 59.959L26.7259 61.6708L24.8736 52.4213C24.4009 50.0611 25.9311 47.7645 28.2913 47.2918C30.6516 46.8192 32.9481 48.3493 33.4208 50.7096Z" fill="black" fill-opacity="0.34"/>
<path d="M35.7637 60.2859L26.3993 62.1613L24.4651 52.5033C23.9481 49.9216 25.6276 47.4007 28.2096 46.8836C30.7916 46.3665 33.3124 48.0462 33.8295 50.6279L35.7637 60.2859ZM27.0526 61.1808L34.7832 59.6326L33.0126 50.7915C32.5858 48.6603 30.5048 47.2736 28.3732 47.7005C26.2417 48.1274 24.8552 50.2085 25.282 52.3397L27.0526 61.1808Z" fill="white"/>
<path d="M33.3389 50.301L24.7917 52.0127L24.9553 52.8296L33.5025 51.1178L33.3389 50.301Z" fill="white"/>
<path d="M29.5555 51.4834L28.7386 51.647L30.591 60.8965L31.4079 60.7329L29.5555 51.4834Z" fill="white"/>
<path d="M53.4706 46.6944L55.323 55.9439L46.7757 57.6556L44.9234 48.4062C44.4507 46.0459 45.9809 43.7494 48.3411 43.2767C50.7014 42.804 52.9979 44.3342 53.4706 46.6944Z" fill="black" fill-opacity="0.34"/>
<path d="M55.8132 56.2707L46.4489 58.1461L44.5147 48.4882C43.9977 45.9065 45.6772 43.3856 48.2592 42.8685C50.8412 42.3514 53.362 44.0311 53.879 46.6128L55.8132 56.2707ZM47.1022 57.1657L54.8327 55.6175L53.0622 46.7764C52.6353 44.6451 50.5543 43.2585 48.4228 43.6853C46.2912 44.1122 44.9047 46.1933 45.3316 48.3246L47.1022 57.1657Z" fill="white"/>
<path d="M53.3885 46.2856L44.8413 47.9973L45.0049 48.8142L53.5521 47.1025L53.3885 46.2856Z" fill="white"/>
<path d="M49.6051 47.4682L48.7882 47.6318L50.6406 56.8814L51.4575 56.7178L49.6051 47.4682Z" fill="white"/>
<path d="M73.4662 42.6898L75.3186 51.9392L66.7714 53.651L64.919 44.4015C64.4463 42.0413 65.9765 39.7447 68.3367 39.2721C70.697 38.7994 72.9935 40.3296 73.4662 42.6898Z" fill="black" fill-opacity="0.34"/>
<path d="M75.8089 52.2661L66.4446 54.1415L64.5104 44.4836C63.9934 41.9018 65.6729 39.3809 68.2549 38.8638C70.8369 38.3467 73.3577 40.0264 73.8748 42.6082L75.8089 52.2661ZM67.0979 53.161L74.8285 51.6128L73.0579 42.7718C72.6311 40.6405 70.5501 39.2538 68.4185 39.6807C66.287 40.1076 64.9005 42.1887 65.3273 44.32L67.0979 53.161Z" fill="white"/>
<path d="M73.3844 42.2809L64.8372 43.9927L65.0008 44.8096L73.548 43.0978L73.3844 42.2809Z" fill="white"/>
<path d="M69.6008 43.4634L68.7839 43.627L70.6363 52.8765L71.4532 52.7129L69.6008 43.4634Z" fill="white"/>
<path d="M36.9697 68.4308L38.8221 77.6802L30.2749 79.392L28.4225 70.1425C27.9498 67.7823 29.48 65.4857 31.8403 65.013C34.2005 64.5403 36.4971 66.0705 36.9697 68.4308Z" fill="black" fill-opacity="0.34"/>
<path d="M39.3126 78.0068L29.9483 79.8822L28.0141 70.2243C27.497 67.6425 29.1766 65.1216 31.7586 64.6045C34.3406 64.0875 36.8614 65.7672 37.3784 68.3489L39.3126 78.0068ZM30.6015 78.9017L38.3321 77.3535L36.5615 68.5125C36.1347 66.3812 34.0537 64.9945 31.9222 65.4214C29.7906 65.8483 28.4041 67.9294 28.831 70.0607L30.6015 78.9017Z" fill="white"/>
<path d="M36.888 68.0226L28.3408 69.7344L28.5044 70.5513L37.0516 68.8395L36.888 68.0226Z" fill="white"/>
<path d="M33.1046 69.2053L32.2877 69.3689L34.1401 78.6185L34.957 78.4549L33.1046 69.2053Z" fill="white"/>
<path d="M77.0152 60.411L78.8675 69.6604L70.3203 71.3722L68.4679 62.1227C67.9952 59.7625 69.5254 57.4659 71.8857 56.9933C74.2459 56.5206 76.5425 58.0507 77.0152 60.411Z" fill="black" fill-opacity="0.34"/>
<path d="M79.3579 69.9868L69.9935 71.8622L68.0594 62.2043C67.5423 59.6225 69.2219 57.1016 71.8039 56.5845C74.3859 56.0674 76.9067 57.7471 77.4237 60.3289L79.3579 69.9868ZM70.6468 70.8817L78.3774 69.3335L76.6068 60.4925C76.18 58.3612 74.099 56.9745 71.9675 57.4014C69.8359 57.8283 68.4494 59.9094 68.8762 62.0407L70.6468 70.8817Z" fill="white"/>
<path d="M76.9334 60.0029L68.3862 61.7146L68.5498 62.5315L77.097 60.8197L76.9334 60.0029Z" fill="white"/>
<path d="M73.1499 61.1853L72.333 61.3489L74.1854 70.5984L75.0023 70.4349L73.1499 61.1853Z" fill="white"/>
<path opacity="0.08" d="M81.3817 31.8831L13.464 45.4849L13.7078 46.7022L81.6255 33.1004L81.3817 31.8831Z" fill="#5656FF"/>
<path d="M57.5689 61.679L46.9121 63.8132L49.8696 78.5807L60.5263 76.4465L57.5689 61.679Z" fill="white"/>
<path d="M54.9827 77.5575L52.2188 63.7563L48.0676 64.5877L50.8316 78.3889L54.9827 77.5575Z" fill="black" fill-opacity="0.34"/>
<path d="M51.7948 64.3929L48.7036 65.012L49.3226 68.1025L52.4137 67.4834L51.7948 64.3929Z" fill="#807F84"/>
<path d="M52.6204 68.5155L49.5293 69.1345L50.4668 73.8159L53.558 73.1969L52.6204 68.5155Z" fill="#807F84"/>
<path d="M54.2205 73.7539L53.5509 73.888C53.1945 73.9593 52.8465 73.7274 52.7752 73.3711L52.2179 70.5887C52.1466 70.2324 52.3784 69.8843 52.7348 69.8129L53.4044 69.6788L53.4681 69.9969L52.7985 70.131C52.6175 70.1672 52.4997 70.3439 52.536 70.525L53.0932 73.3074C53.1294 73.4883 53.3062 73.6062 53.4872 73.5699L54.1568 73.4358L54.2205 73.7539Z" fill="white"/>
<path d="M59.565 76.6396L56.801 62.8384L52.6499 63.6697L55.4138 77.4709L59.565 76.6396Z" fill="black" fill-opacity="0.34"/>
<path d="M56.3769 63.4749L53.2858 64.094L53.9047 67.1845L56.9959 66.5655L56.3769 63.4749Z" fill="#807F84"/>
<path d="M57.2026 67.598L54.1115 68.217L55.049 72.8985L58.1401 72.2794L57.2026 67.598Z" fill="#807F84"/>
<path d="M54.6518 73.6676L55.3214 73.5335C55.6778 73.4621 55.9096 73.114 55.8383 72.7577L55.281 69.9753C55.2097 69.619 54.8617 69.3871 54.5053 69.4584L53.8357 69.5925L53.8994 69.9106L54.569 69.7765C54.75 69.7402 54.9267 69.8579 54.963 70.039L55.5202 72.8214C55.5565 73.0023 55.4387 73.1792 55.2577 73.2154L54.5881 73.3495L54.6518 73.6676Z" fill="white"/>
<path d="M80.2823 21.1817L10.3579 35.1853L11.0312 38.5471L80.9556 24.5435L80.2823 21.1817Z" fill="#409CFF"/>
<path d="M81.0349 19.6412L9.07019 34.0535L9.33766 35.389L81.3024 20.9767L81.0349 19.6412Z" fill="#358DEB"/>
<path d="M72.0225 26.3326L19.9641 36.7583L43.65 19.7714L72.0225 26.3326Z" fill="#5FA8F7"/>
<path d="M65.2183 27.6951L26.7688 35.3953L44.2628 22.849L65.2183 27.6951Z" fill="#409CFF"/>
</g>
<defs>
<clipPath id="clip0_308_1577">
<rect width="84.3089" height="84.3089" fill="white" transform="translate(0 16.5557) rotate(-11.3247)"/>
</clipPath>
</defs>
</svg>
