<svg width="20" height="20" viewBox="0 0 20 20" fill="none" xmlns="http://www.w3.org/2000/svg">
<mask id="mask0_3012_4773" style="mask-type:alpha" maskUnits="userSpaceOnUse" x="0" y="0" width="20" height="20">
<rect width="20" height="20" fill="#D9D9D9"/>
</mask>
<g mask="url(#mask0_3012_4773)">
<path d="M9.36816 16.7083V14.7916H8.15981C7.11078 14.7916 6.21658 14.4219 5.47721 13.6826C4.73784 12.9432 4.36816 12.049 4.36816 11C4.36816 10.3162 4.5399 9.67759 4.88337 9.08412C5.22686 8.49063 5.69507 8.02135 6.28802 7.67626C6.24528 6.93373 6.48353 6.31408 7.00277 5.81728C7.522 5.32049 8.13686 5.11751 8.84733 5.20832H9.11816L8.92104 4.69068C8.85159 4.51903 8.85239 4.34978 8.92343 4.18293C8.99449 4.0161 9.11655 3.90062 9.28962 3.83651L9.84091 3.61697L9.68064 3.17303C9.62723 3.01599 9.63253 2.86253 9.69656 2.71266C9.7606 2.56278 9.86641 2.46091 10.014 2.40703C10.1707 2.34827 10.3247 2.3487 10.4759 2.40833C10.6271 2.46795 10.7311 2.57435 10.788 2.72753L10.9483 3.15062L11.4547 2.9471C11.6224 2.88833 11.7928 2.89661 11.9659 2.97193C12.139 3.04726 12.2575 3.16879 12.3216 3.33651L14.2944 8.29645C14.3585 8.46417 14.3516 8.63591 14.2736 8.81166C14.1956 8.98741 14.0727 9.10733 13.905 9.17143L13.3986 9.38297L13.5588 9.82691C13.6122 9.9786 13.6078 10.127 13.5456 10.2721C13.4834 10.4172 13.3767 10.5188 13.2255 10.5769C13.0688 10.6356 12.9148 10.6352 12.7636 10.5756C12.6124 10.5159 12.5084 10.4095 12.4515 10.2564L12.2704 9.81245L11.7688 10.032C11.5893 10.11 11.4143 10.1082 11.2438 10.0267C11.0733 9.94512 10.954 9.8171 10.8858 9.6426L10.5877 8.85251C10.3729 9.15167 10.1016 9.38831 9.7736 9.56245C9.4456 9.7366 9.09439 9.82902 8.71996 9.8397C8.29844 9.85038 7.91007 9.75957 7.55483 9.56726C7.19961 9.37496 6.9173 9.10038 6.70789 8.74353C6.31366 8.98499 6.00569 9.302 5.784 9.69455C5.5623 10.0871 5.45146 10.5222 5.45146 11C5.45146 11.7523 5.71477 12.3918 6.24139 12.9184C6.76802 13.445 7.40749 13.7083 8.15981 13.7083H14.4098C14.5633 13.7083 14.6919 13.7598 14.7957 13.8629C14.8995 13.9659 14.9515 14.0936 14.9515 14.2459C14.9515 14.3982 14.8995 14.5272 14.7957 14.633C14.6919 14.7387 14.5633 14.7916 14.4098 14.7916H10.6309V16.7083H15.0893C15.2427 16.7083 15.3714 16.7598 15.4752 16.8629C15.579 16.9659 15.6309 17.0936 15.6309 17.2459C15.6309 17.3982 15.579 17.5272 15.4752 17.633C15.3714 17.7387 15.2427 17.7916 15.0893 17.7916H4.90981C4.75634 17.7916 4.62769 17.7401 4.52387 17.6371C4.42007 17.534 4.36816 17.4064 4.36816 17.2541C4.36816 17.1018 4.42007 16.9727 4.52387 16.867C4.62769 16.7612 4.75634 16.7083 4.90981 16.7083H9.36816ZM11.8136 8.66985L12.9114 8.25158L11.389 4.34612L10.2912 4.74837L11.8136 8.66985ZM8.65925 8.59614C8.96966 8.59614 9.23005 8.49114 9.44041 8.28114C9.65079 8.07115 9.75598 7.81095 9.75598 7.50053C9.75598 7.19012 9.65098 6.92973 9.44098 6.71937C9.23099 6.50899 8.97079 6.4038 8.66037 6.4038C8.34996 6.4038 8.08956 6.50881 7.87918 6.71881C7.66882 6.92879 7.56364 7.18899 7.56364 7.49941C7.56364 7.80983 7.66864 8.07021 7.87862 8.28057C8.08862 8.49095 8.34883 8.59614 8.65925 8.59614Z" fill="#EBEBF0"/>
</g>
</svg>
