<svg width="94" height="63" viewBox="0 0 94 63" fill="none" xmlns="http://www.w3.org/2000/svg">
<path d="M66.1965 18.1687L89.0503 41.0224C89.3234 41.2953 89.5401 41.6192 89.6879 41.9758C89.8357 42.3324 89.9118 42.7147 89.9118 43.1007C89.9118 43.4868 89.8357 43.869 89.6879 44.2256C89.5401 44.5822 89.3234 44.9062 89.0503 45.179L49.585 84.6443C49.3122 84.9174 48.9882 85.1341 48.6316 85.2819C48.275 85.4298 47.8927 85.5058 47.5067 85.5058C47.1207 85.5058 46.7384 85.4298 46.3818 85.2819C46.0252 85.1341 45.7012 84.9174 45.4284 84.6443L22.5747 61.7906C22.3015 61.5178 22.0849 61.1938 21.9371 60.8372C21.7892 60.4806 21.7131 60.0983 21.7131 59.7123C21.7131 59.3263 21.7892 58.944 21.9371 58.5874C22.0849 58.2308 22.3015 57.9068 22.5747 57.634L31.5047 48.704" fill="#0031AA"/>
<path d="M66.0938 24.5135L69.3103 21.2822L76.5807 28.5525L66.0938 39.0541L56.6791 48.4688L32.9588 72.1744L25.6885 64.9041L42.1385 48.4688L66.0938 24.5135Z" fill="#B3B3B3" fill-opacity="0.23"/>
<path d="M63.1562 10.2812H7.34375C5.72141 10.2812 4.40625 11.5964 4.40625 13.2188V45.5312C4.40625 47.1536 5.72141 48.4688 7.34375 48.4688H63.1562C64.7786 48.4688 66.0938 47.1536 66.0938 45.5312V13.2188C66.0938 11.5964 64.7786 10.2812 63.1562 10.2812Z" fill="#409CFF"/>
<path d="M16.1562 27.9062C19.4009 27.9062 22.0312 25.2759 22.0312 22.0312C22.0312 18.7866 19.4009 16.1562 16.1562 16.1562C12.9116 16.1562 10.2812 18.7866 10.2812 22.0312C10.2812 25.2759 12.9116 27.9062 16.1562 27.9062Z" fill="#C1272D"/>
<path d="M23.5 27.9062C26.7447 27.9062 29.375 25.2759 29.375 22.0312C29.375 18.7866 26.7447 16.1562 23.5 16.1562C20.2553 16.1562 17.625 18.7866 17.625 22.0312C17.625 25.2759 20.2553 27.9062 23.5 27.9062Z" fill="#E0A421"/>
<path d="M58.75 17.625H49.9375C49.1263 17.625 48.4688 18.2826 48.4688 19.0938V23.5C48.4688 24.3112 49.1263 24.9688 49.9375 24.9688H58.75C59.5612 24.9688 60.2188 24.3112 60.2188 23.5V19.0938C60.2188 18.2826 59.5612 17.625 58.75 17.625Z" fill="#0040DD"/>
<path d="M11.75 35.25H58.75" stroke="white" stroke-opacity="0.22" stroke-width="2.9375" stroke-miterlimit="10" stroke-linecap="round"/>
<path d="M11.75 42.5938H17.625" stroke="white" stroke-opacity="0.22" stroke-width="2.9375" stroke-miterlimit="10" stroke-linecap="round"/>
<path d="M24.9688 42.5938H30.8438" stroke="white" stroke-opacity="0.22" stroke-width="2.9375" stroke-miterlimit="10" stroke-linecap="round"/>
<path d="M39.6562 42.5938H45.5312" stroke="white" stroke-opacity="0.22" stroke-width="2.9375" stroke-miterlimit="10" stroke-linecap="round"/>
<path d="M52.875 42.5938H58.75" stroke="white" stroke-opacity="0.22" stroke-width="2.9375" stroke-miterlimit="10" stroke-linecap="round"/>
</svg>
