<svg width="24" height="25" viewBox="0 0 24 25" fill="none" xmlns="http://www.w3.org/2000/svg">
<path opacity="0.4" d="M7.61195 1.95593C8.15043 1.95593 8.58696 2.39323 8.58696 2.93267V3.43878C9.29618 3.42102 10.0834 3.42103 10.9531 3.42105H13.0458C13.9155 3.42103 14.7027 3.42102 15.412 3.43878V2.93267C15.412 2.39323 15.8485 1.95593 16.387 1.95593C16.9254 1.95593 17.362 2.39323 17.362 2.93267V3.56989L17.3837 3.5728C18.5539 3.7304 19.5391 4.06756 20.3216 4.85145C21.1041 5.63535 21.4406 6.62235 21.598 7.79458C21.7495 8.92366 21.7495 10.3593 21.7495 12.1403V13.1885C21.7495 13.7279 21.3129 14.1652 20.7745 14.1652C20.236 14.1652 19.7994 13.7279 19.7994 13.1885V12.2117C19.7994 11.6794 19.7993 11.1929 19.796 10.7466H4.20291C4.19962 11.1929 4.19945 11.6794 4.19945 12.2117V14.1652C4.19945 16.0346 4.20152 17.3384 4.33354 18.3221C4.46179 19.2777 4.69637 19.7837 5.05617 20.1442C5.41596 20.5046 5.9211 20.7396 6.87501 20.8681C7.85697 21.0003 9.15841 21.0024 11.0245 21.0024C11.5629 21.0024 11.9995 21.4397 11.9995 21.9792C11.9995 22.5186 11.5629 22.9559 11.0245 22.9559H10.9531C9.17526 22.9559 7.74224 22.9559 6.61518 22.8041C5.44504 22.6465 4.4598 22.3094 3.67731 21.5255C2.89482 20.7416 2.55825 19.7546 2.40093 18.5824C2.2494 17.4533 2.24942 16.0177 2.24945 14.2367V12.1403C2.24942 10.3593 2.2494 8.92365 2.40093 7.79458C2.55825 6.62235 2.89482 5.63535 3.67731 4.85145C4.4598 4.06756 5.44504 3.7304 6.61518 3.5728L6.63695 3.56989V2.93267C6.63695 2.39323 7.07348 1.95593 7.61195 1.95593Z" fill="black"/>
<path fill-rule="evenodd" clip-rule="evenodd" d="M16.9995 13.9559C14.3761 13.9559 12.2495 16.0825 12.2495 18.7059C12.2495 21.3293 14.3761 23.4559 16.9995 23.4559C19.6228 23.4559 21.7495 21.3293 21.7495 18.7059C21.7495 16.0825 19.6228 13.9559 16.9995 13.9559ZM17.7495 16.7059C17.7495 16.2917 17.4137 15.9559 16.9995 15.9559C16.5852 15.9559 16.2495 16.2917 16.2495 16.7059V18.7059C16.2495 18.9048 16.3285 19.0956 16.4691 19.2362L17.4691 20.2362C17.762 20.5291 18.2369 20.5291 18.5298 20.2362C18.8227 19.9433 18.8227 19.4685 18.5298 19.1756L17.7495 18.3952V16.7059Z" fill="black"/>
</svg>
