<svg width="24" height="25" viewBox="0 0 24 25" fill="none" xmlns="http://www.w3.org/2000/svg">
<mask id="mask0_3014_4808" style="mask-type:alpha" maskUnits="userSpaceOnUse" x="0" y="0" width="24" height="25">
<rect y="0.402893" width="24" height="24" fill="#D9D9D9"/>
</mask>
<g mask="url(#mask0_3014_4808)">
<path d="M12 20.7298L10.8962 19.7375C9.23847 18.2336 7.86763 16.9413 6.78365 15.8606C5.69968 14.7798 4.84072 13.8179 4.20675 12.975C3.57277 12.132 3.12982 11.3631 2.8779 10.6683C2.62597 9.9734 2.5 9.26828 2.5 8.55289C2.5 7.13368 2.97852 5.94554 3.93558 4.98849C4.89263 4.03144 6.08076 3.55292 7.49998 3.55292C8.37306 3.55292 9.19806 3.75709 9.97498 4.16544C10.7519 4.57378 11.4269 5.15935 12 5.92217C12.5731 5.15935 13.2481 4.57378 14.025 4.16544C14.8019 3.75709 15.6269 3.55292 16.5 3.55292C17.9192 3.55292 19.1073 4.03144 20.0644 4.98849C21.0214 5.94554 21.5 7.13368 21.5 8.55289C21.5 9.26828 21.374 9.9734 21.1221 10.6683C20.8701 11.3631 20.4272 12.132 19.7932 12.975C19.1592 13.8179 18.3019 14.7798 17.2211 15.8606C16.1403 16.9413 14.7679 18.2336 13.1038 19.7375L12 20.7298Z" fill="#409CFF"/>
</g>
</svg>
