<svg width="24" height="25" viewBox="0 0 24 25" fill="none" xmlns="http://www.w3.org/2000/svg">
<mask id="mask0_727_8028" style="mask-type:alpha" maskUnits="userSpaceOnUse" x="0" y="0" width="24" height="25">
<rect y="0.402832" width="24" height="24" fill="#D9D9D9"/>
</mask>
<g mask="url(#mask0_727_8028)">
<path d="M10.75 14.6528V15.9028C10.75 16.25 10.8714 16.5452 11.1143 16.7882C11.3571 17.0313 11.6519 17.1528 11.9988 17.1528C12.3457 17.1528 12.641 17.0313 12.8846 16.7882C13.1282 16.5452 13.25 16.25 13.25 15.9028V14.6528H14.5C14.8472 14.6528 15.1423 14.5314 15.3854 14.2885C15.6284 14.0457 15.75 13.7508 15.75 13.4039C15.75 13.057 15.6284 12.7618 15.3854 12.5182C15.1423 12.2746 14.8472 12.1528 14.5 12.1528H13.25V10.9028C13.25 10.5556 13.1285 10.2605 12.8857 10.0174C12.6429 9.77435 12.348 9.65283 12.0011 9.65283C11.6542 9.65283 11.359 9.77435 11.1154 10.0174C10.8718 10.2605 10.75 10.5556 10.75 10.9028V12.1528H9.49997C9.15276 12.1528 8.85763 12.2742 8.61458 12.5171C8.37153 12.7599 8.25 13.0548 8.25 13.4017C8.25 13.7486 8.37153 14.0438 8.61458 14.2874C8.85763 14.531 9.15276 14.6528 9.49997 14.6528H10.75ZM6.3077 20.9028C5.81058 20.9028 5.38502 20.7258 5.03102 20.3718C4.67701 20.0178 4.5 19.5922 4.5 19.0951V10.5567C4.5 10.2704 4.56402 9.99929 4.69207 9.74321C4.82012 9.48712 4.99712 9.27623 5.22307 9.11053L10.9154 4.83168C11.2313 4.59066 11.5923 4.47015 11.9984 4.47015C12.4046 4.47015 12.7666 4.59066 13.0846 4.83168L18.7769 9.11053C19.0028 9.27623 19.1798 9.48712 19.3079 9.74321C19.4359 9.99929 19.5 10.2704 19.5 10.5567V19.0951C19.5 19.5922 19.3229 20.0178 18.9689 20.3718C18.6149 20.7258 18.1894 20.9028 17.6922 20.9028H6.3077Z" fill="#0040DD"/>
</g>
</svg>
