<svg width="20" height="20" viewBox="0 0 20 20" fill="none" xmlns="http://www.w3.org/2000/svg">
<mask id="mask0_3012_4768" style="mask-type:alpha" maskUnits="userSpaceOnUse" x="0" y="0" width="20" height="20">
<rect width="20" height="20" fill="#D9D9D9"/>
</mask>
<g mask="url(#mask0_3012_4768)">
<path d="M9.20866 11.7916V13C9.20866 13.2199 9.28553 13.4068 9.43928 13.5607C9.59303 13.7147 9.77973 13.7916 9.99937 13.7916C10.219 13.7916 10.406 13.7147 10.5604 13.5607C10.7148 13.4068 10.792 13.2199 10.792 13V11.7916H12.0003C12.2202 11.7916 12.4071 11.7148 12.5611 11.561C12.715 11.4073 12.792 11.2206 12.792 11.0009C12.792 10.7813 12.715 10.5943 12.5611 10.4399C12.4071 10.2855 12.2202 10.2083 12.0003 10.2083H10.792V8.99999C10.792 8.78008 10.7151 8.59317 10.5613 8.43924C10.4076 8.28531 10.2209 8.20834 10.0012 8.20834C9.7816 8.20834 9.5946 8.28531 9.44022 8.43924C9.28585 8.59317 9.20866 8.78008 9.20866 8.99999V10.2083H8.0003C7.7804 10.2083 7.59349 10.2852 7.43955 10.439C7.28562 10.5927 7.20866 10.7794 7.20866 10.999C7.20866 11.2187 7.28562 11.4057 7.43955 11.5601C7.59349 11.7144 7.7804 11.7916 8.0003 11.7916H9.20866ZM5.75083 16.5833C5.38217 16.5833 5.06771 16.4521 4.80743 16.1897C4.54714 15.9274 4.41699 15.612 4.41699 15.2435V8.3782C4.41699 8.16956 4.4634 7.9719 4.55622 7.78524C4.64904 7.59856 4.78265 7.43618 4.95705 7.29809L9.20064 4.10738C9.44999 3.93431 9.71611 3.84778 9.99901 3.84778C10.2819 3.84778 10.5489 3.93431 10.8 4.10738L15.0436 7.29809C15.218 7.43618 15.3516 7.59856 15.4444 7.78524C15.5372 7.9719 15.5836 8.16956 15.5836 8.3782V15.2435C15.5836 15.612 15.4523 15.9274 15.1898 16.1897C14.9273 16.4521 14.6117 16.5833 14.243 16.5833H5.75083ZM5.75674 15.5H14.2439C14.3187 15.5 14.3801 15.4759 14.4282 15.4279C14.4763 15.3798 14.5003 15.3183 14.5003 15.2435V8.3782C14.5003 8.33546 14.491 8.29673 14.4723 8.26201C14.4536 8.22729 14.4282 8.19657 14.3961 8.16986L10.1526 4.98717C10.1098 4.94979 10.0591 4.93109 10.0003 4.93109C9.94154 4.93109 9.89079 4.94979 9.84805 4.98717L5.60447 8.16986C5.57243 8.19657 5.54705 8.22729 5.52835 8.26201C5.50965 8.29673 5.5003 8.33546 5.5003 8.3782V15.2435C5.5003 15.3183 5.52435 15.3798 5.57243 15.4279C5.62051 15.4759 5.68195 15.5 5.75674 15.5Z" fill="#EBEBF0"/>
</g>
</svg>
