<svg width="16" height="17" viewBox="0 0 16 17" fill="none" xmlns="http://www.w3.org/2000/svg">
<mask id="mask0_3014_4799" style="mask-type:alpha" maskUnits="userSpaceOnUse" x="0" y="0" width="16" height="17">
<rect y="0.402893" width="16" height="16" fill="#D9D9D9"/>
</mask>
<g mask="url(#mask0_3014_4799)">
<path d="M10.6026 10.5247L12.9269 8.52468L13.0936 8.5452C13.2179 8.56261 13.3182 8.61654 13.3945 8.707C13.4708 8.79744 13.509 8.89543 13.509 9.00097C13.509 9.07062 13.4983 9.13296 13.4771 9.18797C13.4558 9.24298 13.4169 9.29111 13.3602 9.33237L11.5256 10.8875L12.0777 13.2208C12.0848 13.2381 12.0884 13.2561 12.0884 13.2747V13.3251C12.0884 13.452 12.0437 13.5576 11.9543 13.6419C11.8649 13.7261 11.7584 13.7683 11.6349 13.7683C11.5963 13.7683 11.5614 13.7659 11.5302 13.7612C11.4989 13.7565 11.462 13.7396 11.4192 13.7106L11.3539 13.6772L10.6026 10.5247ZM9.30002 6.576L8.60898 4.97728L8.76797 4.61832C8.81037 4.52482 8.8688 4.45529 8.94327 4.40973C9.01773 4.36418 9.09532 4.3414 9.17603 4.3414C9.25673 4.3414 9.33561 4.36554 9.41265 4.41383C9.48968 4.46213 9.54957 4.53243 9.5923 4.62473L10.4731 6.67087L9.30002 6.576ZM5.0667 12.3196L7.20837 11.0529L9.35003 12.3196L8.78337 9.91957L10.6334 8.33425L8.18337 8.11957L7.20003 5.83623L6.22388 8.11663L3.7667 8.33623L5.63337 9.91957L5.0667 12.3196ZM4.05135 12.8747L4.67185 10.2478L2.58855 8.47983C2.51932 8.42653 2.47081 8.36648 2.44303 8.29968C2.41526 8.23289 2.40137 8.16206 2.40137 8.08718C2.40137 7.95287 2.4471 7.83346 2.53855 7.72893C2.63001 7.62441 2.75052 7.56318 2.90008 7.54523L5.62753 7.2999L6.70773 4.79782C6.75795 4.68842 6.82848 4.60637 6.91935 4.55167C7.01022 4.49697 7.10324 4.46962 7.19843 4.46962C7.29362 4.46962 7.38708 4.49697 7.47882 4.55167C7.57054 4.60637 7.64171 4.68842 7.69233 4.79782L8.77253 7.31657L11.5 7.54523C11.6496 7.56318 11.7701 7.62567 11.8615 7.7327C11.953 7.83973 11.9987 7.95569 11.9987 8.08057C11.9987 8.16128 11.981 8.23518 11.9455 8.30227C11.91 8.36937 11.8598 8.42856 11.7949 8.47983L9.72822 10.2478L10.3512 12.8795C10.3607 12.9073 10.3654 12.9505 10.3654 13.0091C10.3654 13.1617 10.3119 13.2896 10.2051 13.3929C10.0982 13.4961 9.97349 13.5477 9.83098 13.5477C9.82315 13.5477 9.73334 13.5221 9.56155 13.4708L7.20003 12.0619L4.83755 13.4718C4.78692 13.5002 4.74232 13.52 4.70375 13.5311C4.66518 13.5422 4.622 13.5477 4.5742 13.5477C4.40212 13.5477 4.25915 13.4812 4.14527 13.3482C4.03138 13.2152 4.00007 13.0574 4.05135 12.8747Z" fill="#FFCC00"/>
</g>
</svg>
