<svg width="24" height="24" viewBox="0 0 24 24" fill="none" xmlns="http://www.w3.org/2000/svg">
<mask id="mask0_3002_2679" style="mask-type:alpha" maskUnits="userSpaceOnUse" x="0" y="0" width="24" height="24">
<rect width="24" height="24" fill="#0040DD"/>
</mask>
<g mask="url(#mask0_3002_2679)">
<path d="M3.5 13V5.3077C3.5 4.80257 3.675 4.375 4.025 4.025C4.375 3.675 4.80257 3.5 5.3077 3.5H11V13H3.5ZM13 3.5H18.6923C19.1974 3.5 19.625 3.675 19.975 4.025C20.325 4.375 20.5 4.80362 20.5 5.31088V8.99998H13V3.5ZM13 20.5V11H20.5V18.6923C20.5 19.1974 20.325 19.625 19.975 19.975C19.625 20.325 19.1974 20.5 18.6923 20.5H13ZM3.5 15H11V20.5H5.3077C4.80257 20.5 4.375 20.325 4.025 19.975C3.675 19.625 3.5 19.1963 3.5 18.6891V15Z" fill="#0040DD"/>
</g>
</svg>
