<svg width="92" height="92" viewBox="0 0 92 92" fill="none" xmlns="http://www.w3.org/2000/svg">
<g filter="url(#filter0_d_5_961)">
<circle cx="46" cy="37" r="31.5" fill="#0040DD" stroke="#409CFF" stroke-width="5"/>
<path opacity="0.6" fill-rule="evenodd" clip-rule="evenodd" d="M34.4375 27.8487C34.4375 26.5008 35.5273 25.4082 36.8717 25.4082H39.3059C39.9781 25.4082 40.523 25.9545 40.523 26.6284C40.523 27.3024 39.9781 27.8487 39.3059 27.8487H36.8717V32.1195C36.8717 35.1521 39.3238 37.6106 42.3487 37.6106C45.3735 37.6106 47.8256 35.1521 47.8256 32.1195V27.8487H45.3915C44.7192 27.8487 44.1744 27.3024 44.1744 26.6284C44.1744 25.9545 44.7192 25.4082 45.3915 25.4082H47.8256C49.17 25.4082 50.2599 26.5008 50.2599 27.8487V32.1195C50.2599 36.085 47.3571 39.3709 43.5658 39.9578V42.7966C43.5658 45.3238 45.6093 47.3725 48.1299 47.3725C50.6506 47.3725 52.6941 45.3238 52.6941 42.7966V41.2713C52.6941 40.5974 53.239 40.051 53.9111 40.051C54.5834 40.051 55.1283 40.5974 55.1283 41.2713V42.7966C55.1283 46.6716 51.995 49.813 48.1299 49.813C44.2649 49.813 41.1316 46.6716 41.1316 42.7966V39.9578C37.3402 39.3709 34.4375 36.085 34.4375 32.1195V27.8487Z" fill="white"/>
<path fill-rule="evenodd" clip-rule="evenodd" d="M45.3909 24.1875C46.0631 24.1875 46.608 24.7338 46.608 25.4077V27.8482C46.608 28.5221 46.0631 29.0684 45.3909 29.0684C44.7187 29.0684 44.1739 28.5221 44.1739 27.8482V25.4077C44.1739 24.7338 44.7187 24.1875 45.3909 24.1875Z" fill="white"/>
<path fill-rule="evenodd" clip-rule="evenodd" d="M39.3069 24.1875C39.9791 24.1875 40.524 24.7338 40.524 25.4077V27.8482C40.524 28.5221 39.9791 29.0684 39.3069 29.0684C38.6348 29.0684 38.0898 28.5221 38.0898 27.8482V25.4077C38.0898 24.7338 38.6348 24.1875 39.3069 24.1875Z" fill="white"/>
<path d="M50.2603 38.8309C50.2603 36.8091 51.895 35.1701 53.9116 35.1701C55.9281 35.1701 57.5629 36.8091 57.5629 38.8309C57.5629 40.8526 55.9281 42.4916 53.9116 42.4916C51.895 42.4916 50.2603 40.8526 50.2603 38.8309Z" fill="white"/>
</g>
<defs>
<filter id="filter0_d_5_961" x="0.1" y="0.1" width="91.8" height="91.8" filterUnits="userSpaceOnUse" color-interpolation-filters="sRGB">
<feFlood flood-opacity="0" result="BackgroundImageFix"/>
<feColorMatrix in="SourceAlpha" type="matrix" values="0 0 0 0 0 0 0 0 0 0 0 0 0 0 0 0 0 0 127 0" result="hardAlpha"/>
<feOffset dy="9"/>
<feGaussianBlur stdDeviation="5.95"/>
<feComposite in2="hardAlpha" operator="out"/>
<feColorMatrix type="matrix" values="0 0 0 0 0.182858 0 0 0 0 0.360493 0 0 0 0 0.551644 0 0 0 0.24 0"/>
<feBlend mode="normal" in2="BackgroundImageFix" result="effect1_dropShadow_5_961"/>
<feBlend mode="normal" in="SourceGraphic" in2="effect1_dropShadow_5_961" result="shape"/>
</filter>
</defs>
</svg>
