<svg width="54" height="55" viewBox="0 0 54 55" fill="none" xmlns="http://www.w3.org/2000/svg">
<g clip-path="url(#clip0_646_15105)">
<circle cx="27" cy="27.4028" r="25" fill="#0040DD"/>
<mask id="mask0_646_15105" style="mask-type:alpha" maskUnits="userSpaceOnUse" x="15" y="15" width="24" height="25">
<rect x="15" y="15.4028" width="24" height="24" fill="#D9D9D9"/>
</mask>
<g mask="url(#mask0_646_15105)">
<path d="M28.482 36.9028C26.8175 36.9028 25.3995 36.3191 24.2282 35.1518C23.0569 33.9845 22.4712 32.5681 22.4712 30.9028V30.3566C21.1212 30.181 19.992 29.5791 19.0837 28.5509C18.1754 27.5227 17.7212 26.3067 17.7212 24.9028V20.0567C17.7212 19.8006 17.8078 19.5859 17.981 19.4127C18.1543 19.2394 18.369 19.1528 18.625 19.1528H20.7212V18.9028C20.7212 18.6903 20.7931 18.5122 20.9369 18.3685C21.0807 18.2247 21.2589 18.1528 21.4715 18.1528C21.6841 18.1528 21.8622 18.2247 22.0058 18.3685C22.1494 18.5122 22.2212 18.6903 22.2212 18.9028V20.9028C22.2212 21.1153 22.1493 21.2934 22.0054 21.4372C21.8616 21.5809 21.6834 21.6528 21.4708 21.6528C21.2583 21.6528 21.0802 21.5809 20.9366 21.4372C20.793 21.2934 20.7212 21.1153 20.7212 20.9028V20.6528H19.2212V24.9028C19.2212 26.0028 19.6128 26.9445 20.3962 27.7278C21.1795 28.5111 22.1212 28.9028 23.2212 28.9028C24.3212 28.9028 25.2628 28.5111 26.0462 27.7278C26.8295 26.9445 27.2212 26.0028 27.2212 24.9028V20.6528H25.7211V20.9028C25.7211 21.1153 25.6492 21.2934 25.5054 21.4372C25.3616 21.5809 25.1834 21.6528 24.9708 21.6528C24.7582 21.6528 24.5801 21.5809 24.4365 21.4372C24.293 21.2934 24.2212 21.1153 24.2212 20.9028V18.9028C24.2212 18.6903 24.2931 18.5122 24.4369 18.3685C24.5807 18.2247 24.7589 18.1528 24.9715 18.1528C25.1841 18.1528 25.3622 18.2247 25.5057 18.3685C25.6493 18.5122 25.7211 18.6903 25.7211 18.9028V19.1528H27.8173C28.0734 19.1528 28.288 19.2394 28.4613 19.4127C28.6345 19.5859 28.7211 19.8006 28.7211 20.0567V24.9028C28.7211 26.3067 28.267 27.5227 27.3586 28.5509C26.4503 29.5791 25.3211 30.181 23.9711 30.3566V30.9028C23.9711 32.1528 24.4096 33.2153 25.2864 34.0903C26.1633 34.9653 27.2281 35.4028 28.4808 35.4028C29.7308 35.4028 30.7933 34.9653 31.6683 34.0903C32.5433 33.2153 32.9808 32.1528 32.9808 30.9028V29.2855C32.4551 29.1201 32.0224 28.8145 31.6827 28.3688C31.343 27.923 31.1731 27.4151 31.1731 26.8451C31.1731 26.1347 31.4219 25.5308 31.9194 25.0335C32.4169 24.5361 33.0211 24.2875 33.7319 24.2875C34.4426 24.2875 35.0464 24.5361 35.5432 25.0335C36.04 25.5308 36.2884 26.1347 36.2884 26.8451C36.2884 27.4151 36.1185 27.923 35.7788 28.3688C35.439 28.8145 35.0063 29.1201 34.4807 29.2855V30.9028C34.4807 32.5681 33.8971 33.9845 32.7298 35.1518C31.5625 36.3191 30.1466 36.9028 28.482 36.9028ZM33.7307 27.9028C34.0269 27.9028 34.2772 27.8006 34.4817 27.5961C34.6862 27.3916 34.7884 27.1413 34.7884 26.8451C34.7884 26.549 34.6862 26.2986 34.4817 26.0942C34.2772 25.8897 34.0269 25.7874 33.7307 25.7874C33.4346 25.7874 33.1843 25.8897 32.9798 26.0942C32.7753 26.2986 32.673 26.549 32.673 26.8451C32.673 27.1413 32.7753 27.3916 32.9798 27.5961C33.1843 27.8006 33.4346 27.9028 33.7307 27.9028Z" fill="white"/>
</g>
</g>
<rect x="2" y="2.40283" width="50" height="50" rx="25" stroke="#409CFF" stroke-width="4"/>
<defs>
<clipPath id="clip0_646_15105">
<rect x="2" y="2.40283" width="50" height="50" rx="25" fill="white"/>
</clipPath>
</defs>
</svg>
