<svg width="20" height="20" viewBox="0 0 20 20" fill="none" xmlns="http://www.w3.org/2000/svg">
<mask id="mask0_541_12176" style="mask-type:alpha" maskUnits="userSpaceOnUse" x="0" y="0" width="20" height="20">
<rect width="20" height="20" fill="#D9D9D9"/>
</mask>
<g mask="url(#mask0_541_12176)">
<path d="M16.2852 17.1474L11.0513 11.9135C10.6346 12.2575 10.1554 12.5267 9.61376 12.7211C9.07209 12.9156 8.51173 13.0128 7.93267 13.0128C6.50837 13.0128 5.30294 12.5197 4.31638 11.5333C3.32983 10.547 2.83655 9.34193 2.83655 7.91799C2.83655 6.49405 3.3297 5.28849 4.31601 4.30131C5.30231 3.31414 6.50744 2.82056 7.93138 2.82056C9.35531 2.82056 10.5609 3.31384 11.548 4.30039C12.5352 5.28695 13.0288 6.49238 13.0288 7.91668C13.0288 8.51177 12.9289 9.08014 12.7291 9.62181C12.5293 10.1635 12.2628 10.6346 11.9294 11.0353L17.1634 16.2692L16.2852 17.1474ZM7.93267 11.7628C9.0064 11.7628 9.91585 11.3903 10.661 10.6451C11.4062 9.89986 11.7788 8.9904 11.7788 7.91668C11.7788 6.84296 11.4062 5.9335 10.661 5.18831C9.91585 4.44311 9.0064 4.07051 7.93267 4.07051C6.85895 4.07051 5.94949 4.44311 5.2043 5.18831C4.45912 5.9335 4.08653 6.84296 4.08653 7.91668C4.08653 8.9904 4.45912 9.89986 5.2043 10.6451C5.94949 11.3903 6.85895 11.7628 7.93267 11.7628Z" fill="#1C1B1F"/>
</g>
</svg>
