<svg width="20" height="20" viewBox="0 0 20 20" fill="none" xmlns="http://www.w3.org/2000/svg">
<mask id="mask0_3012_4763" style="mask-type:alpha" maskUnits="userSpaceOnUse" x="0" y="0" width="20" height="20">
<rect width="20" height="20" fill="#D9D9D9"/>
</mask>
<g mask="url(#mask0_3012_4763)">
<path d="M11.0888 17.5833C9.84588 17.5833 8.78713 17.1457 7.9125 16.2704C7.03789 15.395 6.60059 14.3327 6.60059 13.0834V12.4824C5.48947 12.3777 4.54503 11.9178 3.76725 11.1026C2.98948 10.2874 2.60059 9.3088 2.60059 8.16671V3.62506H5.10059V2.62506H6.1839V5.70837H5.10059V4.70837H3.6839V8.17631C3.6839 9.07269 3.99987 9.83685 4.63182 10.4688C5.26376 11.1007 6.03112 11.4167 6.9339 11.4167C7.83668 11.4167 8.60404 11.1007 9.23598 10.4688C9.86793 9.83685 10.1839 9.07269 10.1839 8.17631V4.70837H8.76719V5.70837H7.6839V2.62506H8.76719V3.62506H11.2672V8.16671C11.2672 9.25811 10.9269 10.2032 10.2464 11.0021C9.56582 11.8009 8.71166 12.2805 7.68388 12.4407V13.1042C7.68388 14.0533 8.01493 14.86 8.67702 15.5243C9.33912 16.1887 10.1431 16.5209 11.089 16.5209C12.0326 16.5209 12.8343 16.1887 13.494 15.5243C14.1537 14.86 14.4836 14.0533 14.4836 13.1042V11.9155C14.0178 11.8052 13.6363 11.5628 13.3393 11.1883C13.0423 10.8139 12.8938 10.374 12.8938 9.86864C12.8938 9.27659 13.1011 8.77335 13.5158 8.35891C13.9304 7.94447 14.4338 7.73725 15.0261 7.73725C15.6185 7.73725 16.1216 7.94447 16.5356 8.35891C16.9496 8.77335 17.1566 9.27659 17.1566 9.86864C17.1566 10.374 17.0081 10.8139 16.7111 11.1883C16.4141 11.5628 16.0327 11.8077 15.5669 11.9231V13.0834C15.5669 14.3327 15.1312 15.395 14.26 16.2704C13.3887 17.1457 12.3317 17.5833 11.0888 17.5833ZM15.0252 10.9167C15.3192 10.9167 15.5674 10.8155 15.7698 10.6132C15.9721 10.4108 16.0733 10.1627 16.0733 9.86864C16.0733 9.57462 15.9721 9.32643 15.7698 9.12408C15.5674 8.92173 15.3192 8.82056 15.0252 8.82056C14.7312 8.82056 14.483 8.92173 14.2806 9.12408C14.0783 9.32643 13.9771 9.57462 13.9771 9.86864C13.9771 10.1627 14.0783 10.4108 14.2806 10.6132C14.483 10.8155 14.7312 10.9167 15.0252 10.9167Z" fill="#EBEBF0"/>
</g>
</svg>
