<svg width="89" height="70" viewBox="0 0 89 70" fill="none" xmlns="http://www.w3.org/2000/svg">
<g clip-path="url(#clip0_308_1652)">
<path d="M57.639 25.0286C54.4577 25.9056 52.5723 29.226 53.4493 32.4074C54.3263 35.5887 57.6468 37.4741 60.8281 36.5971C64.0094 35.7201 65.8948 32.3996 65.0178 29.2183C64.1408 26.037 60.8204 24.1516 57.639 25.0286ZM69.8014 46.571C68.9244 43.3897 65.604 41.5043 62.4226 42.3813C59.2413 43.2583 57.3559 46.5788 58.2329 49.7601C59.1099 52.9414 62.4304 54.8268 65.6117 53.9498C68.7931 53.0728 70.6784 49.7524 69.8014 46.571ZM53.0426 76.0861C56.2239 75.2091 58.1093 71.8887 57.2323 68.7074C56.3553 65.526 53.0349 63.6407 49.8535 64.5177C46.6722 65.3947 44.7868 68.7151 45.6638 71.8964C46.5408 75.0778 49.8613 76.9631 53.0426 76.0861ZM21.339 28.8116C24.5204 27.9346 26.4057 24.6141 25.5287 21.4328C24.6517 18.2515 21.3313 16.3661 18.15 17.2431C14.9686 18.1201 13.0833 21.4406 13.9603 24.6219C14.8373 27.8032 18.1577 29.6886 21.339 28.8116ZM52.8554 7.67587C49.6741 8.55287 47.7887 11.8733 48.6657 15.0547C49.5427 18.236 52.8632 20.1214 56.0445 19.2444C59.2258 18.3674 61.1112 15.0469 60.2342 11.8656C59.3572 8.68424 56.0367 6.79888 52.8554 7.67587ZM30.9063 63.517C34.0876 62.64 35.973 59.3196 35.096 56.1383C34.219 52.9569 30.8985 51.0716 27.7172 51.9486C24.5359 52.8256 22.6505 56.146 23.5275 59.3273C24.4045 62.5087 27.7249 64.394 30.9063 63.517ZM26.1227 46.1643C29.304 45.2873 31.1894 41.9669 30.3124 38.7855C29.4354 35.6042 26.1149 33.7188 22.9336 34.5958C19.7522 35.4728 17.8669 38.7933 18.7439 41.9746C19.6209 45.1559 22.9413 47.0413 26.1227 46.1643ZM48.259 58.7334C51.4403 57.8564 53.3257 54.536 52.4487 51.3546C51.5717 48.1733 48.2513 46.2879 45.0699 47.1649C41.8886 48.0419 40.0032 51.3624 40.8802 54.5437C41.7572 57.7251 45.0777 59.6104 48.259 58.7334ZM43.4754 41.3807C46.6567 40.5037 48.5421 37.1832 47.6651 34.0019C46.7881 30.8206 43.4676 28.9352 40.2863 29.8122C37.105 30.6892 35.2196 34.0097 36.0966 37.191C36.9736 40.3723 40.294 42.2577 43.4754 41.3807ZM38.6918 24.028C41.8731 23.151 43.7585 19.8305 42.8815 16.6492C42.0045 13.4679 38.684 11.5825 35.5027 12.4595C32.3214 13.3365 30.436 16.6569 31.313 19.8383C32.19 23.0196 35.5104 24.905 38.6918 24.028Z" fill="black"/>
</g>
<defs>
<clipPath id="clip0_308_1652">
<rect width="72" height="72" fill="white" transform="translate(0 19.1345) rotate(-15.4119)"/>
</clipPath>
</defs>
</svg>
