<svg width="24" height="25" viewBox="0 0 24 25" fill="none" xmlns="http://www.w3.org/2000/svg">
<mask id="mask0_646_15112" style="mask-type:alpha" maskUnits="userSpaceOnUse" x="0" y="0" width="24" height="25">
<rect y="0.402832" width="24" height="24" fill="#D9D9D9"/>
</mask>
<g mask="url(#mask0_646_15112)">
<path d="M5.3077 20.9028C4.80898 20.9028 4.38302 20.7262 4.02982 20.373C3.67661 20.0198 3.5 19.5938 3.5 19.0951V5.71053C3.5 5.21182 3.67661 4.78586 4.02982 4.43266C4.38302 4.07944 4.80898 3.90283 5.3077 3.90283H18.6923C19.191 3.90283 19.6169 4.07944 19.9701 4.43266C20.3233 4.78586 20.5 5.21182 20.5 5.71053V8.43168H19V5.71053C19 5.62078 18.9711 5.54706 18.9134 5.48936C18.8557 5.43166 18.782 5.40281 18.6923 5.40281H5.3077C5.21795 5.40281 5.14423 5.43166 5.08653 5.48936C5.02883 5.54706 4.99997 5.62078 4.99997 5.71053V19.0951C4.99997 19.1848 5.02883 19.2586 5.08653 19.3163C5.14423 19.374 5.21795 19.4028 5.3077 19.4028H18.6923C18.782 19.4028 18.8557 19.374 18.9134 19.3163C18.9711 19.2586 19 19.1848 19 19.0951V16.3739H20.5V19.0951C20.5 19.5938 20.3233 20.0198 19.9701 20.373C19.6169 20.7262 19.191 20.9028 18.6923 20.9028H5.3077ZM13.3077 16.9028C12.809 16.9028 12.383 16.7262 12.0298 16.373C11.6766 16.0198 11.5 15.5938 11.5 15.0951V9.71053C11.5 9.21182 11.6766 8.78586 12.0298 8.43266C12.383 8.07944 12.809 7.90283 13.3077 7.90283H19.6922C20.191 7.90283 20.6169 8.07944 20.9701 8.43266C21.3233 8.78586 21.5 9.21182 21.5 9.71053V15.0951C21.5 15.5938 21.3233 16.0198 20.9701 16.373C20.6169 16.7262 20.191 16.9028 19.6922 16.9028H13.3077ZM19.6922 15.4028C19.782 15.4028 19.8557 15.374 19.9134 15.3163C19.9711 15.2586 20 15.1848 20 15.0951V9.71053C20 9.62078 19.9711 9.54706 19.9134 9.48936C19.8557 9.43166 19.782 9.40281 19.6922 9.40281H13.3077C13.218 9.40281 13.1442 9.43166 13.0865 9.48936C13.0288 9.54706 13 9.62078 13 9.71053V15.0951C13 15.1848 13.0288 15.2586 13.0865 15.3163C13.1442 15.374 13.218 15.4028 13.3077 15.4028H19.6922ZM16 13.9028C16.4166 13.9028 16.7708 13.757 17.0625 13.4653C17.3541 13.1736 17.5 12.8195 17.5 12.4028C17.5 11.9861 17.3541 11.632 17.0625 11.3403C16.7708 11.0486 16.4166 10.9028 16 10.9028C15.5833 10.9028 15.2291 11.0486 14.9375 11.3403C14.6458 11.632 14.5 11.9861 14.5 12.4028C14.5 12.8195 14.6458 13.1736 14.9375 13.4653C15.2291 13.757 15.5833 13.9028 16 13.9028Z" fill="#AEAEB2"/>
</g>
</svg>
