<svg width="21" height="20" viewBox="0 0 21 20" fill="none" xmlns="http://www.w3.org/2000/svg">
<mask id="mask0_541_13566" style="mask-type:alpha" maskUnits="userSpaceOnUse" x="0" y="0" width="21" height="20">
<rect x="0.666504" width="20" height="20" fill="#D9D9D9"/>
</mask>
<g mask="url(#mask0_541_13566)">
<path d="M4.25642 17.0833C3.83547 17.0833 3.47917 16.9375 3.1875 16.6458C2.89583 16.3541 2.75 15.9978 2.75 15.5769V6.9231C2.75 6.50216 2.89583 6.14585 3.1875 5.85419C3.47917 5.56252 3.83547 5.41669 4.25642 5.41669H7.75V4.00646C7.75 3.58553 7.89583 3.22923 8.1875 2.93756C8.47917 2.64589 8.83547 2.50006 9.25642 2.50006H12.0769C12.4978 2.50006 12.8541 2.64589 13.1458 2.93756C13.4375 3.22923 13.5833 3.58553 13.5833 4.00646V5.41669H17.0769C17.4978 5.41669 17.8541 5.56252 18.1458 5.85419C18.4375 6.14585 18.5833 6.50216 18.5833 6.9231V15.5769C18.5833 15.9978 18.4375 16.3541 18.1458 16.6458C17.8541 16.9375 17.4978 17.0833 17.0769 17.0833H4.25642ZM8.99998 5.41669H12.3333V4.00646C12.3333 3.94235 12.3066 3.88358 12.2532 3.83017C12.1998 3.77674 12.141 3.75002 12.0769 3.75002H9.25642C9.19231 3.75002 9.13354 3.77674 9.0801 3.83017C9.02669 3.88358 8.99998 3.94235 8.99998 4.00646V5.41669ZM17.3333 12.2916H12.75V12.9968C12.75 13.2115 12.6781 13.3907 12.5344 13.5344C12.3907 13.6781 12.2115 13.75 11.9967 13.75H9.33654C9.12181 13.75 8.94259 13.6781 8.7989 13.5344C8.65519 13.3907 8.58333 13.2115 8.58333 12.9968V12.2916H3.99998V15.5769C3.99998 15.641 4.02669 15.6998 4.0801 15.7532C4.13353 15.8066 4.19231 15.8333 4.25642 15.8333H17.0769C17.141 15.8333 17.1998 15.8066 17.2532 15.7532C17.3066 15.6998 17.3333 15.641 17.3333 15.5769V12.2916ZM9.83331 12.5H11.5V10.8333H9.83331V12.5ZM3.99998 11.0417H8.58333V10.3366C8.58333 10.1218 8.65519 9.94261 8.7989 9.79891C8.94259 9.65521 9.12181 9.58335 9.33654 9.58335H11.9967C12.2115 9.58335 12.3907 9.65521 12.5344 9.79891C12.6781 9.94261 12.75 10.1218 12.75 10.3366V11.0417H17.3333V6.9231C17.3333 6.85899 17.3066 6.80022 17.2532 6.74679C17.1998 6.69337 17.141 6.66667 17.0769 6.66667H4.25642C4.19231 6.66667 4.13353 6.69337 4.0801 6.74679C4.02669 6.80022 3.99998 6.85899 3.99998 6.9231V11.0417Z" fill="#242426"/>
</g>
</svg>
