<svg width="16" height="16" viewBox="0 0 16 16" fill="none" xmlns="http://www.w3.org/2000/svg">
<mask id="mask0_541_14346" style="mask-type:alpha" maskUnits="userSpaceOnUse" x="0" y="0" width="16" height="16">
<rect width="16" height="16" fill="#D9D9D9"/>
</mask>
<g mask="url(#mask0_541_14346)">
<path d="M5.33348 9.29488C5.17024 9.29488 5.03114 9.2374 4.91618 9.12245C4.80122 9.00749 4.74375 8.86839 4.74375 8.70515C4.74375 8.5419 4.80122 8.4028 4.91618 8.28785C5.03114 8.17289 5.17024 8.11542 5.33348 8.11542C5.49672 8.11542 5.63582 8.17289 5.75078 8.28785C5.86574 8.4028 5.92321 8.5419 5.92321 8.70515C5.92321 8.86839 5.86574 9.00749 5.75078 9.12245C5.63582 9.2374 5.49672 9.29488 5.33348 9.29488ZM8.00015 9.29488C7.8369 9.29488 7.6978 9.2374 7.58285 9.12245C7.46789 9.00749 7.41041 8.86839 7.41041 8.70515C7.41041 8.5419 7.46789 8.4028 7.58285 8.28785C7.6978 8.17289 7.8369 8.11542 8.00015 8.11542C8.16339 8.11542 8.30249 8.17289 8.41745 8.28785C8.5324 8.4028 8.58988 8.5419 8.58988 8.70515C8.58988 8.86839 8.5324 9.00749 8.41745 9.12245C8.30249 9.2374 8.16339 9.29488 8.00015 9.29488ZM10.6668 9.29488C10.5036 9.29488 10.3645 9.2374 10.2495 9.12245C10.1346 9.00749 10.0771 8.86839 10.0771 8.70515C10.0771 8.5419 10.1346 8.4028 10.2495 8.28785C10.3645 8.17289 10.5036 8.11542 10.6668 8.11542C10.8301 8.11542 10.9692 8.17289 11.0841 8.28785C11.1991 8.4028 11.2565 8.5419 11.2565 8.70515C11.2565 8.86839 11.1991 9.00749 11.0841 9.12245C10.9692 9.2374 10.8301 9.29488 10.6668 9.29488ZM3.53863 14.3333C3.20187 14.3333 2.91683 14.2167 2.6835 13.9833C2.45016 13.75 2.3335 13.465 2.3335 13.1282V4.20517C2.3335 3.86841 2.45016 3.58337 2.6835 3.35003C2.91683 3.1167 3.20187 3.00003 3.53863 3.00003H4.46171V2.10258C4.46171 1.95644 4.51065 1.83443 4.60851 1.73657C4.70637 1.63871 4.82837 1.58978 4.97453 1.58978C5.12067 1.58978 5.24268 1.63871 5.34055 1.73657C5.4384 1.83443 5.48733 1.95644 5.48733 2.10258V3.00003H10.5386V2.08977C10.5386 1.94789 10.5865 1.82909 10.6822 1.73337C10.7779 1.63764 10.8967 1.58978 11.0386 1.58978C11.1805 1.58978 11.2993 1.63764 11.395 1.73337C11.4907 1.82909 11.5386 1.94789 11.5386 2.08977V3.00003H12.4617C12.7984 3.00003 13.0835 3.1167 13.3168 3.35003C13.5501 3.58337 13.6668 3.86841 13.6668 4.20517V13.1282C13.6668 13.465 13.5501 13.75 13.3168 13.9833C13.0835 14.2167 12.7984 14.3333 12.4617 14.3333H3.53863ZM3.53863 13.3333H12.4617C12.513 13.3333 12.56 13.312 12.6027 13.2692C12.6454 13.2265 12.6668 13.1795 12.6668 13.1282V6.87183H3.33348V13.1282C3.33348 13.1795 3.35485 13.2265 3.39758 13.2692C3.44032 13.312 3.48734 13.3333 3.53863 13.3333ZM3.33348 5.87185H12.6668V4.20517C12.6668 4.15388 12.6454 4.10686 12.6027 4.06412C12.56 4.02138 12.513 4.00002 12.4617 4.00002H3.53863C3.48734 4.00002 3.44032 4.02138 3.39758 4.06412C3.35485 4.10686 3.33348 4.15388 3.33348 4.20517V5.87185Z" fill="#242426"/>
</g>
</svg>
