<svg width="20" height="20" viewBox="0 0 20 20" fill="none" xmlns="http://www.w3.org/2000/svg">
<mask id="mask0_541_13599" style="mask-type:alpha" maskUnits="userSpaceOnUse" x="0" y="0" width="20" height="20">
<rect width="20" height="20" fill="#D9D9D9"/>
</mask>
<g mask="url(#mask0_541_13599)">
<path d="M6.66648 11.6186C6.46243 11.6186 6.28855 11.5467 6.14486 11.403C6.00116 11.2594 5.92932 11.0855 5.92932 10.8814C5.92932 10.6774 6.00116 10.5035 6.14486 10.3598C6.28855 10.2161 6.46243 10.1443 6.66648 10.1443C6.87054 10.1443 7.04441 10.2161 7.18811 10.3598C7.3318 10.5035 7.40365 10.6774 7.40365 10.8814C7.40365 11.0855 7.3318 11.2594 7.18811 11.403C7.04441 11.5467 6.87054 11.6186 6.66648 11.6186ZM9.99982 11.6186C9.79576 11.6186 9.62189 11.5467 9.47819 11.403C9.3345 11.2594 9.26265 11.0855 9.26265 10.8814C9.26265 10.6774 9.3345 10.5035 9.47819 10.3598C9.62189 10.2161 9.79576 10.1443 9.99982 10.1443C10.2039 10.1443 10.3777 10.2161 10.5214 10.3598C10.6651 10.5035 10.737 10.6774 10.737 10.8814C10.737 11.0855 10.6651 11.2594 10.5214 11.403C10.3777 11.5467 10.2039 11.6186 9.99982 11.6186ZM13.3332 11.6186C13.1291 11.6186 12.9552 11.5467 12.8115 11.403C12.6678 11.2594 12.596 11.0855 12.596 10.8814C12.596 10.6774 12.6678 10.5035 12.8115 10.3598C12.9552 10.2161 13.1291 10.1443 13.3332 10.1443C13.5372 10.1443 13.7111 10.2161 13.8548 10.3598C13.9985 10.5035 14.0703 10.6774 14.0703 10.8814C14.0703 11.0855 13.9985 11.2594 13.8548 11.403C13.7111 11.5467 13.5372 11.6186 13.3332 11.6186ZM4.42292 17.9167C4.00198 17.9167 3.64567 17.7708 3.354 17.4792C3.06234 17.1875 2.9165 16.8312 2.9165 16.4102V5.25644C2.9165 4.8355 3.06234 4.47919 3.354 4.18753C3.64567 3.89586 4.00198 3.75003 4.42292 3.75003H5.57677V2.62821C5.57677 2.44553 5.63794 2.29303 5.76028 2.17069C5.88259 2.04837 6.0351 1.98721 6.2178 1.98721C6.40048 1.98721 6.55298 2.04837 6.67532 2.17069C6.79764 2.29303 6.8588 2.44553 6.8588 2.62821V3.75003H13.1729V2.61219C13.1729 2.43485 13.2327 2.28634 13.3524 2.16669C13.472 2.04704 13.6205 1.98721 13.7979 1.98721C13.9752 1.98721 14.1237 2.04704 14.2434 2.16669C14.363 2.28634 14.4229 2.43485 14.4229 2.61219V3.75003H15.5767C15.9977 3.75003 16.354 3.89586 16.6456 4.18753C16.9373 4.47919 17.0831 4.8355 17.0831 5.25644V16.4102C17.0831 16.8312 16.9373 17.1875 16.6456 17.4792C16.354 17.7708 15.9977 17.9167 15.5767 17.9167H4.42292ZM4.42292 16.6667H15.5767C15.6408 16.6667 15.6996 16.64 15.753 16.5865C15.8064 16.5331 15.8332 16.4743 15.8332 16.4102V8.58978H4.16648V16.4102C4.16648 16.4743 4.19319 16.5331 4.24661 16.5865C4.30004 16.64 4.35881 16.6667 4.42292 16.6667Z" fill="#0040DD"/>
</g>
</svg>
