<svg width="20" height="20" viewBox="0 0 20 20" fill="none" xmlns="http://www.w3.org/2000/svg">
<mask id="mask0_541_13513" style="mask-type:alpha" maskUnits="userSpaceOnUse" x="0" y="0" width="20" height="20">
<rect width="20" height="20" fill="#D9D9D9"/>
</mask>
<g mask="url(#mask0_541_13513)">
<path d="M9.99783 16.5913C9.82202 16.5913 9.65052 16.5555 9.48333 16.4839C9.31613 16.4124 9.17752 16.3119 9.06748 16.1827L3.85275 11.3429C3.36664 10.8985 3.00232 10.3817 2.75979 9.79246C2.51726 9.20325 2.396 8.586 2.396 7.94071C2.396 6.69483 2.79812 5.62402 3.60237 4.72827C4.40661 3.83252 5.40189 3.38464 6.5882 3.38464C7.18136 3.38464 7.74579 3.50991 8.2815 3.76043C8.8172 4.01098 9.29659 4.35473 9.71966 4.79168L10.0001 5.08818L10.2646 4.80771C10.6845 4.34618 11.1679 3.99362 11.7149 3.75002C12.2619 3.50643 12.8279 3.38464 13.4129 3.38464C14.5933 3.38464 15.587 3.83155 16.3939 4.72535C17.2008 5.61916 17.6043 6.68957 17.6043 7.93658C17.6043 8.57608 17.4878 9.19044 17.2549 9.77964C17.022 10.3689 16.6668 10.8857 16.1892 11.3301L10.9328 16.2035C10.8008 16.3328 10.6559 16.4297 10.4982 16.4944C10.3404 16.559 10.1736 16.5913 9.99783 16.5913ZM11.0001 7.20835C11.0921 7.20835 11.1779 7.22678 11.2574 7.26362C11.337 7.30048 11.4034 7.36112 11.4569 7.44552L12.7838 9.45835H16.1892C16.3068 9.22117 16.3914 8.97173 16.4432 8.71002C16.4951 8.44831 16.5183 8.18493 16.513 7.91987C16.5183 6.98932 16.2227 6.17868 15.6263 5.48798C15.0298 4.79727 14.2923 4.45191 13.4136 4.45191C12.9822 4.45191 12.565 4.5462 12.1621 4.73477C11.7593 4.92334 11.4097 5.17921 11.1134 5.50239L10.4665 6.1875C10.409 6.25268 10.3407 6.30049 10.2615 6.33094C10.1823 6.36138 10.0952 6.3766 10.0001 6.3766C9.90506 6.3766 9.82141 6.36005 9.7492 6.32693C9.677 6.29381 9.61214 6.24733 9.55464 6.1875L8.89598 5.49079C8.59363 5.16146 8.24308 4.90865 7.84433 4.73237C7.44558 4.55608 7.02636 4.46793 6.58668 4.46793C5.70802 4.46793 4.97045 4.80855 4.374 5.48979C3.77754 6.17103 3.47931 6.988 3.47931 7.94071C3.47931 8.20639 3.51002 8.46645 3.57145 8.72089C3.63289 8.97535 3.7197 9.22117 3.83189 9.45835H7.50014C7.5921 9.45835 7.67652 9.47678 7.75339 9.51362C7.83028 9.55048 7.8963 9.61297 7.95145 9.70108L8.93925 11.1811L10.513 7.5016C10.5717 7.40012 10.6411 7.32587 10.7212 7.27885C10.8012 7.23185 10.8942 7.20835 11.0001 7.20835ZM11.061 8.83971L9.48731 12.4984C9.42854 12.5999 9.36017 12.6741 9.28218 12.7211C9.2042 12.7681 9.1073 12.7916 8.9915 12.7916C8.90161 12.7916 8.81914 12.7732 8.7441 12.7364C8.66907 12.6995 8.60485 12.6389 8.55143 12.5545L7.2165 10.5416H4.59148L9.74998 15.357C9.77786 15.3829 9.81611 15.4062 9.86473 15.4271C9.91334 15.4479 9.95848 15.4583 10.0001 15.4583C10.0418 15.4583 10.0869 15.4479 10.1356 15.4271C10.1842 15.4062 10.2224 15.3829 10.2503 15.357L15.396 10.5416H12.5001C12.4082 10.5416 12.3224 10.5254 12.2429 10.4928C12.1633 10.4602 12.0995 10.4017 12.0514 10.3173L11.061 8.83971Z" fill="#242426"/>
</g>
</svg>
