<svg width="21" height="20" viewBox="0 0 21 20" fill="none" xmlns="http://www.w3.org/2000/svg">
<mask id="mask0_541_13574" style="mask-type:alpha" maskUnits="userSpaceOnUse" x="0" y="0" width="21" height="20">
<rect x="0.5" width="20" height="20" fill="#D9D9D9"/>
</mask>
<g mask="url(#mask0_541_13574)">
<path d="M1.99854 14.2372C1.99854 13.8077 2.10938 13.4244 2.33108 13.0873C2.55276 12.7503 2.84881 12.488 3.21924 12.3006C4.0112 11.9132 4.80755 11.6146 5.60828 11.4047C6.40903 11.1947 7.28911 11.0898 8.24851 11.0898C9.20792 11.0898 10.088 11.1947 10.8887 11.4047C11.6895 11.6146 12.4858 11.9132 13.2778 12.3006C13.6482 12.488 13.9443 12.7503 14.166 13.0873C14.3876 13.4244 14.4985 13.8077 14.4985 14.2372V14.8237C14.4985 15.1592 14.3753 15.454 14.1291 15.7083C13.8828 15.9626 13.584 16.0897 13.2325 16.0897H3.26453C2.91305 16.0897 2.61418 15.9666 2.36793 15.7203C2.12168 15.4741 1.99856 15.1752 1.99856 14.8237L1.99854 14.2372ZM17.7357 16.0897H15.843C15.9477 15.8985 16.0276 15.6949 16.0826 15.4791C16.1376 15.2633 16.1651 15.0448 16.1651 14.8237V14.1346C16.1651 13.5876 16.0312 13.0663 15.7633 12.5707C15.4955 12.075 15.1155 11.6498 14.6235 11.2949C15.1823 11.3782 15.7127 11.5072 16.2148 11.6819C16.717 11.8566 17.1961 12.063 17.6523 12.3013C18.0829 12.531 18.4154 12.8017 18.6499 13.1134C18.8844 13.4252 19.0017 13.7656 19.0017 14.1346V14.8237C19.0017 15.1752 18.8785 15.4741 18.6323 15.7203C18.386 15.9666 18.0871 16.0897 17.7357 16.0897ZM8.24851 9.74355C7.44645 9.74355 6.75982 9.45797 6.18864 8.8868C5.61746 8.31562 5.33187 7.62899 5.33187 6.82692C5.33187 6.02484 5.61746 5.33822 6.18864 4.76705C6.75982 4.19587 7.44645 3.91028 8.24851 3.91028C9.05058 3.91028 9.73721 4.19587 10.3084 4.76705C10.8796 5.33822 11.1651 6.02484 11.1651 6.82692C11.1651 7.62899 10.8796 8.31562 10.3084 8.8868C9.73721 9.45797 9.05058 9.74355 8.24851 9.74355ZM15.444 6.82692C15.444 7.62899 15.1584 8.31562 14.5872 8.8868C14.016 9.45797 13.3294 9.74355 12.5273 9.74355C12.4333 9.74355 12.3136 9.73287 12.1683 9.71151C12.0231 9.69015 11.9034 9.66665 11.8094 9.64101C12.138 9.24591 12.3906 8.8076 12.5671 8.32607C12.7436 7.84454 12.8318 7.34449 12.8318 6.82593C12.8318 6.30737 12.7418 5.80931 12.5618 5.33174C12.3818 4.85418 12.131 4.41455 11.8094 4.01284C11.929 3.97011 12.0487 3.94233 12.1683 3.92951C12.288 3.91669 12.4077 3.91028 12.5273 3.91028C13.3294 3.91028 14.016 4.19587 14.5872 4.76705C15.1584 5.33822 15.444 6.02484 15.444 6.82692ZM3.24851 14.8397H13.2485V14.2372C13.2485 14.063 13.205 13.9081 13.1179 13.7724C13.0308 13.6367 12.8927 13.5181 12.7036 13.4166C12.0177 13.063 11.3115 12.7951 10.5851 12.6129C9.85856 12.4308 9.07971 12.3397 8.24851 12.3397C7.41732 12.3397 6.63847 12.4308 5.91197 12.6129C5.18549 12.7951 4.47929 13.063 3.79339 13.4166C3.60429 13.5181 3.4662 13.6367 3.37912 13.7724C3.29205 13.9081 3.24851 14.063 3.24851 14.2372V14.8397ZM8.24851 8.49359C8.70685 8.49359 9.09921 8.3304 9.4256 8.00401C9.75199 7.67762 9.91518 7.28526 9.91518 6.82692C9.91518 6.36859 9.75199 5.97623 9.4256 5.64984C9.09921 5.32345 8.70685 5.16026 8.24851 5.16026C7.79018 5.16026 7.39782 5.32345 7.07143 5.64984C6.74504 5.97623 6.58185 6.36859 6.58185 6.82692C6.58185 7.28526 6.74504 7.67762 7.07143 8.00401C7.39782 8.3304 7.79018 8.49359 8.24851 8.49359Z" fill="#242426"/>
</g>
</svg>
