<svg width="21" height="20" viewBox="0 0 21 20" fill="none" xmlns="http://www.w3.org/2000/svg">
<mask id="mask0_541_13582" style="mask-type:alpha" maskUnits="userSpaceOnUse" x="0" y="0" width="21" height="20">
<rect x="0.333008" width="20" height="20" fill="#D9D9D9"/>
</mask>
<g mask="url(#mask0_541_13582)">
<path d="M13.7528 12.7564L16.7832 10.1522L17.1166 10.1779C17.2997 10.1996 17.4424 10.2758 17.5448 10.4064C17.6471 10.537 17.6983 10.6785 17.6983 10.8309C17.6983 10.918 17.682 11.0035 17.6495 11.0874C17.617 11.1713 17.5574 11.2447 17.4707 11.3077L15.2399 13.2516L15.9098 16.1682C15.9184 16.1899 15.9226 16.2142 15.9226 16.2412V16.3141C15.9226 16.4978 15.8593 16.6509 15.7327 16.7732C15.6061 16.8955 15.4558 16.9567 15.2816 16.9567C15.2272 16.9567 15.1701 16.9503 15.1102 16.9374C15.0503 16.9246 14.9937 16.9001 14.9403 16.8637L14.6711 16.6971L13.7528 12.7564ZM11.9788 7.25803L11.1358 5.28047L11.2512 4.99843C11.3042 4.86766 11.3864 4.76687 11.4977 4.69603C11.609 4.6252 11.7246 4.58978 11.8446 4.58978C11.9646 4.58978 12.0819 4.62344 12.1964 4.69074C12.3109 4.75806 12.3949 4.85635 12.4483 4.98562L13.4659 7.39745L11.9788 7.25803ZM6.45797 14.8542L9.08297 13.2708L11.708 14.875L11.0205 11.875L13.333 9.87499L10.2913 9.60416L9.08297 6.77082L7.87464 9.58332L4.83297 9.85416L7.14547 11.875L6.45797 14.8542ZM4.95961 15.7355L5.75607 12.3269L3.11028 10.0337C3.0152 9.95567 2.94895 9.86735 2.91155 9.7687C2.87416 9.67006 2.85547 9.57141 2.85547 9.47276C2.85547 9.29604 2.9161 9.13194 3.03736 8.98045C3.15863 8.82896 3.32663 8.742 3.54136 8.71957L7.03401 8.41291L8.38426 5.20197C8.44702 5.05133 8.54431 4.93835 8.67612 4.86303C8.80793 4.78771 8.94289 4.75005 9.08097 4.75005C9.21905 4.75005 9.35454 4.78771 9.48743 4.86303C9.62032 4.93835 9.7184 5.05133 9.78168 5.20197L11.1319 8.41291L14.6246 8.71957C14.8393 8.742 15.0073 8.82889 15.1286 8.98022C15.2498 9.13157 15.3105 9.29552 15.3105 9.47207C15.3105 9.57296 15.2918 9.67228 15.2544 9.77003C15.217 9.8678 15.1507 9.95567 15.0557 10.0337L12.4099 12.3269L13.209 15.7359C13.2211 15.772 13.2272 15.8278 13.2272 15.9035C13.2272 16.1179 13.152 16.2976 13.0018 16.4426C12.8515 16.5877 12.6762 16.6602 12.4758 16.6602C12.4383 16.6602 12.3052 16.6212 12.0765 16.5432L9.08297 14.7403L6.08941 16.5432C6.02531 16.5795 5.95874 16.6081 5.8897 16.629C5.82066 16.6498 5.75475 16.6602 5.69199 16.6602C5.46602 16.6602 5.27144 16.5689 5.10826 16.3862C4.94507 16.2035 4.89552 15.9866 4.95961 15.7355Z" fill="#242426"/>
</g>
</svg>
