<svg width="20" height="20" viewBox="0 0 20 20" fill="none" xmlns="http://www.w3.org/2000/svg">
<mask id="mask0_541_13552" style="mask-type:alpha" maskUnits="userSpaceOnUse" x="0" y="0" width="20" height="20">
<rect width="20" height="20" fill="#D9D9D9"/>
</mask>
<g mask="url(#mask0_541_13552)">
<path d="M9.99982 17.5833C8.95601 17.5833 7.97338 17.3857 7.05192 16.9904C6.13045 16.5951 5.32516 16.0529 4.63605 15.3638C3.94695 14.6747 3.40475 13.8694 3.00946 12.9479C2.61416 12.0264 2.4165 11.0438 2.4165 10C2.4165 8.94765 2.61416 7.96288 3.00946 7.04569C3.40475 6.12849 3.94695 5.32534 4.63605 4.63623C5.32516 3.94713 6.13045 3.40494 7.05192 3.00965C7.97338 2.61434 8.95601 2.41669 9.99982 2.41669C11.0522 2.41669 12.0369 2.61434 12.9541 3.00965C13.8713 3.40494 14.6745 3.94713 15.3636 4.63623C16.0527 5.32534 16.5949 6.12849 16.9902 7.04569C17.3855 7.96288 17.5831 8.94765 17.5831 10C17.5831 11.0438 17.3855 12.0264 16.9902 12.9479C16.5949 13.8694 16.0527 14.6747 15.3636 15.3638C14.6745 16.0529 13.8713 16.5951 12.9541 16.9904C12.0369 17.3857 11.0522 17.5833 9.99982 17.5833ZM9.99982 16.4615C10.3 16.1613 10.5816 15.6723 10.8444 14.9944C11.1072 14.3165 11.3091 13.5609 11.4502 12.7275H8.54948C8.70119 13.5823 8.90579 14.3485 9.16327 15.0264C9.42075 15.7043 9.69959 16.1827 9.99982 16.4615ZM8.6569 16.3574C8.39301 15.9407 8.15476 15.4161 7.94215 14.7836C7.72954 14.1512 7.56661 13.4658 7.45336 12.7275H4.10557C4.54575 13.6902 5.16728 14.4901 5.97017 15.1274C6.77307 15.7647 7.66865 16.1747 8.6569 16.3574ZM11.3427 16.3574C12.331 16.1747 13.2266 15.7647 14.0295 15.1274C14.8324 14.4901 15.4539 13.6902 15.8941 12.7275H12.5463C12.4063 13.4711 12.23 14.1592 12.0174 14.7917C11.8048 15.4242 11.5799 15.9461 11.3427 16.3574ZM3.72738 11.6443H7.34598C7.30752 11.3483 7.28349 11.0585 7.27388 10.7749C7.26427 10.4912 7.25946 10.219 7.25946 9.95833C7.25946 9.69765 7.26427 9.43242 7.27388 9.16265C7.28349 8.89288 7.30752 8.62392 7.34598 8.35575H3.72738C3.64725 8.62499 3.5893 8.89849 3.5535 9.17627C3.51771 9.45405 3.49982 9.72862 3.49982 10C3.49982 10.2714 3.51771 10.546 3.5535 10.8237C3.5893 11.1015 3.64725 11.375 3.72738 11.6443ZM8.45013 11.6443H11.5495C11.588 11.3344 11.612 11.0473 11.6216 10.7829C11.6312 10.5184 11.636 10.2575 11.636 10C11.636 9.74251 11.6312 9.47809 11.6216 9.20673C11.612 8.93535 11.588 8.65169 11.5495 8.35575H8.45013C8.41167 8.65169 8.38763 8.93535 8.378 9.20673C8.36839 9.47809 8.36359 9.74251 8.36359 10C8.36359 10.2575 8.36839 10.5219 8.378 10.7933C8.38763 11.0646 8.41167 11.3483 8.45013 11.6443ZM12.6536 11.6443H16.2723C16.3524 11.375 16.4103 11.1015 16.4461 10.8237C16.4819 10.546 16.4998 10.2714 16.4998 10C16.4998 9.72862 16.4819 9.45058 16.4461 9.16585C16.4103 8.88113 16.3524 8.6111 16.2723 8.35575H12.6536C12.6921 8.65169 12.7161 8.94149 12.7258 9.22515C12.7354 9.50881 12.7402 9.78099 12.7402 10.0417C12.7402 10.3023 12.7354 10.5676 12.7258 10.8374C12.7161 11.1071 12.6921 11.3761 12.6536 11.6443ZM12.5463 7.27246H15.8941C15.4485 6.29915 14.831 5.49919 14.0415 4.87258C13.2519 4.24599 12.3524 3.83333 11.3427 3.6346C11.6066 4.07798 11.8422 4.6119 12.0495 5.23638C12.2567 5.86085 12.4223 6.53954 12.5463 7.27246ZM8.54948 7.27246H11.4502C11.2984 6.4231 11.0898 5.65279 10.8243 4.96154C10.5589 4.27031 10.284 3.79594 9.99982 3.53846C9.71562 3.79594 9.44078 4.27031 9.1753 4.96154C8.9098 5.65279 8.70119 6.4231 8.54948 7.27246ZM4.10557 7.27246H7.45336C7.57729 6.53954 7.74289 5.86085 7.95017 5.23638C8.15743 4.6119 8.39301 4.07798 8.6569 3.6346C7.64194 3.83333 6.74102 4.24733 5.95415 4.8766C5.16729 5.50588 4.55109 6.3045 4.10557 7.27246Z" fill="#1C1B1F"/>
</g>
</svg>
