<svg width="20" height="20" viewBox="0 0 20 20" fill="none" xmlns="http://www.w3.org/2000/svg">
<mask id="mask0_541_13540" style="mask-type:alpha" maskUnits="userSpaceOnUse" x="0" y="0" width="20" height="20">
<rect width="20" height="20" fill="#D9D9D9"/>
</mask>
<g mask="url(#mask0_541_13540)">
<path d="M12.4998 16.5512L7.49982 15.0512L4.6008 16.0015C4.31341 16.0966 4.04418 16.059 3.79311 15.8886C3.54204 15.7182 3.4165 15.4684 3.4165 15.1394V5.50161C3.4165 5.29541 3.47447 5.10952 3.5904 4.94392C3.70632 4.77832 3.85081 4.66614 4.02388 4.60738L7.49982 3.44873L12.4998 4.94873L15.3988 3.99842C15.6862 3.87556 15.9555 3.90227 16.2065 4.07854C16.4576 4.25482 16.5831 4.50482 16.5831 4.82854V14.5304C16.5831 14.7419 16.5246 14.9326 16.4076 15.1025C16.2906 15.2724 16.136 15.3798 15.9437 15.4246L12.4998 16.5512ZM11.9582 15.2724V5.89742L8.04146 4.71152V14.0865L11.9582 15.2724ZM13.0415 15.2308L15.4998 14.4166V5.08331L13.0415 5.89742V15.2308ZM4.49982 14.9166L6.95817 14.0865V4.75319L4.49982 5.58331V14.9166Z" fill="#242426"/>
</g>
</svg>
