<svg width="20" height="20" viewBox="0 0 20 20" fill="none" xmlns="http://www.w3.org/2000/svg">
<mask id="mask0_541_13528" style="mask-type:alpha" maskUnits="userSpaceOnUse" x="0" y="0" width="20" height="20">
<rect width="20" height="20" fill="#D9D9D9"/>
</mask>
<g mask="url(#mask0_541_13528)">
<path d="M10.0082 5.78524C9.83085 5.78524 9.68235 5.72541 9.5627 5.60576C9.44303 5.48611 9.3832 5.33761 9.3832 5.16026V2.66026C9.3832 2.48291 9.44303 2.33441 9.5627 2.21476C9.68235 2.09511 9.83085 2.03528 10.0082 2.03528C10.1855 2.03528 10.334 2.09511 10.4537 2.21476C10.5734 2.33441 10.6332 2.48291 10.6332 2.66026V5.16026C10.6332 5.33761 10.5734 5.48611 10.4537 5.60576C10.334 5.72541 10.1855 5.78524 10.0082 5.78524ZM14.2358 7.59934C14.115 7.47008 14.0525 7.32372 14.0483 7.16026C14.044 6.9968 14.1065 6.85043 14.2358 6.72115L16.0146 4.95834C16.1385 4.83441 16.2857 4.77325 16.4561 4.77486C16.6265 4.77646 16.7764 4.84189 16.9056 4.97115C17.0263 5.10043 17.0888 5.2468 17.0931 5.41026C17.0974 5.57372 17.0349 5.72008 16.9056 5.84934L15.1268 7.61218C15.0028 7.73609 14.8557 7.79725 14.6853 7.79565C14.5149 7.79406 14.365 7.72862 14.2358 7.59934ZM5.78062 7.59934C5.65669 7.72327 5.50952 7.78871 5.33912 7.79565C5.16872 7.8026 5.01888 7.74411 4.88962 7.62017L3.10276 5.87338C2.97349 5.74412 2.91099 5.59508 2.91526 5.42628C2.91953 5.25749 2.98203 5.10845 3.10276 4.97917C3.23203 4.84991 3.38319 4.78314 3.55626 4.77886C3.72935 4.77458 3.88052 4.83708 4.00978 4.96636L5.78062 6.72115C5.9099 6.84509 5.9724 6.99012 5.96812 7.15626C5.96384 7.32238 5.90134 7.47008 5.78062 7.59934ZM2.80947 16.4791L1.22135 14.9327C1.04935 14.766 0.96468 14.5676 0.967346 14.3373C0.970027 14.1071 1.05737 13.906 1.22937 13.7339C2.38214 12.5213 3.73444 11.5959 5.28624 10.9575C6.83806 10.3192 8.40937 9.99999 10.0002 9.99999C11.591 9.99999 13.1602 10.3192 14.7077 10.9575C16.2552 11.5959 17.6097 12.5213 18.771 13.7339C18.943 13.906 19.0303 14.1071 19.033 14.3373C19.0357 14.5676 18.951 14.766 18.779 14.9327L17.1909 16.4791C17.0221 16.6426 16.833 16.7339 16.6236 16.7532C16.4142 16.7724 16.2208 16.7168 16.0435 16.5865L13.9473 14.9936C13.8095 14.8889 13.7075 14.7729 13.6412 14.6458C13.575 14.5187 13.5419 14.375 13.5419 14.2147V11.8637C12.9393 11.6597 12.3522 11.5064 11.7806 11.4038C11.2091 11.3012 10.6156 11.25 10.0002 11.25C9.38479 11.25 8.7913 11.3012 8.21972 11.4038C7.64814 11.5064 7.06106 11.6597 6.45849 11.8637V14.2147C6.45849 14.375 6.42537 14.5187 6.35914 14.6458C6.2929 14.7729 6.19087 14.8889 6.05303 14.9936L3.95691 16.5865C3.77956 16.7168 3.58619 16.7724 3.37678 16.7532C3.16738 16.7339 2.97828 16.6426 2.80947 16.4791ZM5.20853 12.2708C4.70959 12.5112 4.22721 12.7948 3.76139 13.1218C3.29557 13.4487 2.86127 13.7922 2.45849 14.1522C2.43178 14.1789 2.41843 14.2056 2.41843 14.2323C2.41843 14.2591 2.43178 14.2858 2.45849 14.3125L3.37197 15.2179C3.39868 15.2446 3.43207 15.262 3.47214 15.27C3.51221 15.278 3.54826 15.2687 3.5803 15.242L5.11237 14.0673C5.13908 14.0459 5.16178 14.0192 5.18047 13.9872C5.19918 13.9551 5.20853 13.9257 5.20853 13.899V12.2708ZM14.7918 12.2964V13.899C14.7918 13.9257 14.8012 13.9551 14.8199 13.9872C14.8386 14.0192 14.8613 14.0459 14.888 14.0673L16.4201 15.242C16.4521 15.2687 16.4882 15.278 16.5282 15.27C16.5683 15.262 16.6017 15.2446 16.6284 15.2179L17.5419 14.3381C17.5686 14.3114 17.5819 14.2847 17.5819 14.258C17.5819 14.2313 17.5686 14.2046 17.5419 14.1778C17.1391 13.8007 16.7048 13.4508 16.239 13.1282C15.7732 12.8055 15.2908 12.5283 14.7918 12.2964Z" fill="#242426"/>
</g>
</svg>
