<svg width="20" height="20" viewBox="0 0 20 20" fill="none" xmlns="http://www.w3.org/2000/svg">
<mask id="mask0_541_13520" style="mask-type:alpha" maskUnits="userSpaceOnUse" x="0" y="0" width="20" height="20">
<rect width="20" height="20" fill="#D9D9D9"/>
</mask>
<g mask="url(#mask0_541_13520)">
<path d="M10.5415 9.45513V5.54165C10.5415 5.38819 10.4899 5.25955 10.3869 5.15573C10.2839 5.05191 10.1562 5 10.0039 5C9.85161 5 9.72258 5.05191 9.61682 5.15573C9.51105 5.25955 9.45817 5.38819 9.45817 5.54165V9.64744C9.45817 9.74553 9.47633 9.83362 9.51265 9.91171C9.54897 9.98979 9.59918 10.0609 9.6633 10.125L12.5559 13.0176C12.6734 13.1351 12.8022 13.1918 12.9421 13.1875C13.0821 13.1832 13.2124 13.1207 13.3332 13C13.4539 12.8793 13.5142 12.7503 13.5142 12.613C13.5142 12.4757 13.4515 12.345 13.3262 12.2207L10.5415 9.45513ZM10.0012 17.5833C8.95661 17.5833 7.97473 17.386 7.05555 16.9912C6.13636 16.5965 5.33085 16.0534 4.639 15.3619C3.94714 14.6703 3.40376 13.8642 3.00886 12.9434C2.61396 12.0226 2.4165 11.0388 2.4165 9.99185C2.4165 8.94494 2.61387 7.96059 3.00859 7.03881C3.40331 6.11702 3.94643 5.31367 4.63796 4.62877C5.3295 3.94385 6.13566 3.40394 7.05644 3.00904C7.97722 2.61414 8.96106 2.41669 10.008 2.41669C11.0549 2.41669 12.0393 2.61572 12.9611 3.01377C13.883 3.41183 14.6849 3.95203 15.3668 4.6344C16.0488 5.31677 16.5886 6.11919 16.9864 7.04167C17.3842 7.96413 17.5831 8.94977 17.5831 9.9986C17.5831 11.0432 17.3858 12.0251 16.991 12.9443C16.5963 13.8635 16.0567 14.669 15.3721 15.3608C14.6875 16.0527 13.8836 16.5961 12.9604 16.991C12.0373 17.3859 11.0509 17.5833 10.0012 17.5833ZM10.0098 16.5C11.808 16.5 13.3393 15.8646 14.6035 14.5938C15.8677 13.3229 16.4998 11.7884 16.4998 9.99006C16.4998 8.19177 15.8677 6.66052 14.6035 5.39631C13.3393 4.1321 11.808 3.5 10.0098 3.5C8.21146 3.5 6.6769 4.1321 5.40607 5.39631C4.13523 6.66052 3.49982 8.19177 3.49982 9.99006C3.49982 11.7884 4.13523 13.3229 5.40607 14.5938C6.6769 15.8646 8.21146 16.5 10.0098 16.5Z" fill="#242426"/>
</g>
</svg>
