<svg width="16" height="16" viewBox="0 0 16 16" fill="none" xmlns="http://www.w3.org/2000/svg">
<mask id="mask0_541_14354" style="mask-type:alpha" maskUnits="userSpaceOnUse" x="0" y="0" width="16" height="16">
<rect width="16" height="16" fill="#D9D9D9"/>
</mask>
<g mask="url(#mask0_541_14354)">
<path d="M8.4998 7.79744V5.16665C8.4998 5.025 8.45187 4.90625 8.356 4.81042C8.26013 4.71459 8.14133 4.66667 7.9996 4.66667C7.85787 4.66667 7.73914 4.71459 7.64342 4.81042C7.5477 4.90625 7.49984 5.025 7.49984 5.16665V7.95129C7.49984 8.02977 7.51436 8.10579 7.54342 8.17937C7.57248 8.25295 7.6182 8.32094 7.6806 8.38334L9.96394 10.6667C10.0562 10.759 10.1723 10.8062 10.312 10.8083C10.4517 10.8105 10.5699 10.7632 10.6665 10.6667C10.7631 10.5701 10.8114 10.453 10.8114 10.3154C10.8114 10.1778 10.7631 10.0607 10.6665 9.96412L8.4998 7.79744ZM8.00094 14.3333C7.12498 14.3333 6.30163 14.1671 5.53087 13.8347C4.7601 13.5022 4.08965 13.051 3.5195 12.4812C2.94935 11.9113 2.49798 11.2411 2.16539 10.4707C1.8328 9.70026 1.6665 8.87708 1.6665 8.00112C1.6665 7.12516 1.83273 6.30181 2.16517 5.53105C2.49762 4.76029 2.94878 4.08983 3.51867 3.51969C4.08857 2.94953 4.75873 2.49816 5.52915 2.16557C6.29956 1.83298 7.12275 1.66669 7.9987 1.66669C8.87466 1.66669 9.69802 1.83291 10.4688 2.16535C11.2395 2.4978 11.91 2.94896 12.4801 3.51885C13.0503 4.08875 13.5017 4.75892 13.8343 5.52934C14.1668 6.29975 14.3331 7.12293 14.3331 7.99889C14.3331 8.87484 14.1669 9.6982 13.8345 10.469C13.502 11.2397 13.0509 11.9102 12.481 12.4803C11.9111 13.0505 11.2409 13.5018 10.4705 13.8344C9.70008 14.167 8.87689 14.3333 8.00094 14.3333ZM7.99982 13.3333C9.4776 13.3333 10.7359 12.8139 11.7748 11.775C12.8137 10.7361 13.3332 9.47778 13.3332 8C13.3332 6.52223 12.8137 5.26389 11.7748 4.225C10.7359 3.18612 9.4776 2.66667 7.99982 2.66667C6.52204 2.66667 5.26371 3.18612 4.22482 4.225C3.18593 5.26389 2.66649 6.52223 2.66649 8C2.66649 9.47778 3.18593 10.7361 4.22482 11.775C5.26371 12.8139 6.52204 13.3333 7.99982 13.3333Z" fill="#242426"/>
</g>
</svg>
