<svg width="24" height="24" viewBox="0 0 24 24" fill="none" xmlns="http://www.w3.org/2000/svg">
<mask id="mask0_541_16799" style="mask-type:alpha" maskUnits="userSpaceOnUse" x="0" y="0" width="24" height="24">
<rect width="24" height="24" fill="#D9D9D9"/>
</mask>
<g mask="url(#mask0_541_16799)">
<path d="M5.3077 20.5C4.80257 20.5 4.375 20.325 4.025 19.975C3.675 19.625 3.5 19.1974 3.5 18.6923V5.3077C3.5 4.80257 3.675 4.375 4.025 4.025C4.375 3.675 4.80257 3.5 5.3077 3.5H18.6923C19.1974 3.5 19.625 3.675 19.975 4.025C20.325 4.375 20.5 4.80257 20.5 5.3077V6.00005H13.3077C12.3167 6.00005 11.5177 6.30357 10.9106 6.9106C10.3036 7.51765 10.0001 8.31668 10.0001 9.3077V14.6923C10.0001 15.6833 10.3036 16.4823 10.9106 17.0894C11.5177 17.6964 12.3167 17.9999 13.3077 17.9999H20.5V18.6923C20.5 19.1974 20.325 19.625 19.975 19.975C19.625 20.325 19.1974 20.5 18.6923 20.5H5.3077ZM13.3077 16.5C12.8026 16.5 12.375 16.325 12.025 15.975C11.675 15.625 11.5 15.1974 11.5 14.6923V9.3077C11.5 8.80257 11.675 8.375 12.025 8.025C12.375 7.675 12.8026 7.5 13.3077 7.5H19.6922C20.1974 7.5 20.625 7.675 20.975 8.025C21.325 8.375 21.5 8.80257 21.5 9.3077V14.6923C21.5 15.1974 21.325 15.625 20.975 15.975C20.625 16.325 20.1974 16.5 19.6922 16.5H13.3077ZM16 13.5C16.4333 13.5 16.7916 13.3583 17.075 13.075C17.3583 12.7916 17.5 12.4333 17.5 12C17.5 11.5666 17.3583 11.2083 17.075 10.925C16.7916 10.6416 16.4333 10.5 16 10.5C15.5666 10.5 15.2083 10.6416 14.925 10.925C14.6416 11.2083 14.5 11.5666 14.5 12C14.5 12.4333 14.6416 12.7916 14.925 13.075C15.2083 13.3583 15.5666 13.5 16 13.5Z" fill="#0040DD"/>
</g>
</svg>
