<svg width="14" height="14" viewBox="0 0 14 14" fill="none" xmlns="http://www.w3.org/2000/svg">
<path d="M8.16667 1.40648C7.71039 1.25105 7.21957 1.1665 6.70834 1.1665C4.28408 1.1665 2.31883 3.06765 2.31883 5.41283C2.31877 6.01966 2.28243 6.59005 1.91661 7.113C1.63733 7.5074 1.26036 7.9113 1.18413 8.39634C1.06008 9.18565 1.61467 9.73345 2.2937 10.0065C4.89698 11.0532 8.51971 11.0532 11.1229 10.0065C11.802 9.73345 12.3566 9.18565 12.2326 8.39634C12.1861 8.10053 12.0277 7.83488 11.8479 7.58317" stroke="#F3F5FA" stroke-width="0.875" stroke-linecap="round" stroke-linejoin="round"/>
<path opacity="0.4" d="M8.77917 2.946L11.6375 5.80433M12.25 4.37516C12.25 3.24758 11.3359 2.3335 10.2083 2.3335C9.08076 2.3335 8.16667 3.24758 8.16667 4.37516C8.16667 5.50275 9.08076 6.41683 10.2083 6.41683C11.3359 6.41683 12.25 5.50275 12.25 4.37516Z" stroke="#F3F5FA" stroke-width="0.875" stroke-linecap="round"/>
<path opacity="0.4" d="M4.95833 12.25C5.42274 12.6128 6.03604 12.8333 6.70833 12.8333C7.38062 12.8333 7.99394 12.6128 8.45833 12.25" stroke="#F3F5FA" stroke-width="0.875" stroke-linecap="round" stroke-linejoin="round"/>
</svg>
