<svg width="14" height="14" viewBox="0 0 14 14" fill="none" xmlns="http://www.w3.org/2000/svg">
<path d="M12.8335 3.9614C12.8335 5.50486 11.5235 6.75631 9.90786 6.75631C9.71787 6.75655 9.52846 6.73899 9.34185 6.70399C9.20751 6.67879 9.14031 6.66625 9.09347 6.67336C9.04657 6.68048 8.98013 6.71577 8.84724 6.78635C8.47134 6.98597 8.03302 7.0565 7.61151 6.97821C7.77169 6.7814 7.88113 6.54532 7.92943 6.29216C7.95865 6.13734 7.8862 5.98695 7.77764 5.87688C7.28449 5.37681 6.98221 4.70298 6.98221 3.9614C6.98221 2.41793 8.2922 1.1665 9.90786 1.1665C11.5235 1.1665 12.8335 2.41793 12.8335 3.9614Z" stroke="#F3F5FA" stroke-width="0.875" stroke-linejoin="round"/>
<path d="M9.02615 4.08789H9.03088M10.7815 4.08789H10.7863" stroke="#F3F5FA" stroke-width="0.875" stroke-linecap="round"/>
<g opacity="0.4">
<path d="M5.96033 7.18966C5.96033 8.09342 5.23951 8.82608 4.35032 8.82608C3.46112 8.82608 2.74028 8.09342 2.74028 7.18966C2.74028 6.28584 3.46112 5.55322 4.35032 5.55322C5.23951 5.55322 5.96033 6.28584 5.96033 7.18966Z" stroke="#F3F5FA" stroke-width="0.875"/>
<path d="M7.35758 11.3841C5.10691 9.63222 2.84737 10.0946 1.34357 11.4065C1.11545 11.6055 1.10737 11.9566 1.32166 12.1704C1.57876 12.4269 1.86831 12.645 2.33243 12.8054C2.38902 12.825 2.44887 12.8338 2.50875 12.8338H6.19295C6.25969 12.8338 6.32613 12.8228 6.38854 12.7991C6.78737 12.6476 7.11019 12.4555 7.42542 12.1287C7.63344 11.9131 7.59412 11.5682 7.35758 11.3841Z" stroke="#F3F5FA" stroke-width="0.875"/>
</g>
</svg>
