<svg width="14" height="14" viewBox="0 0 14 14" fill="none" xmlns="http://www.w3.org/2000/svg">
<path d="M7.29167 12.8332H3.84468C2.94321 12.8332 2.22619 12.3945 1.58239 11.7812C0.264469 10.5256 2.42831 9.52217 3.25359 9.03077C4.65313 8.19742 6.3248 7.96671 7.87501 8.3387" stroke="#F3F5FA" stroke-width="0.875" stroke-linecap="round" stroke-linejoin="round"/>
<path d="M9.625 3.7915C9.625 5.24125 8.44976 6.4165 7 6.4165C5.55025 6.4165 4.375 5.24125 4.375 3.7915C4.375 2.34176 5.55025 1.1665 7 1.1665C8.44976 1.1665 9.625 2.34176 9.625 3.7915Z" stroke="#F3F5FA" stroke-width="0.875"/>
<path opacity="0.4" d="M9.33333 9.55225C9.33333 9.79386 9.52922 9.98975 9.77083 9.98975C10.0125 9.98975 10.2083 9.79386 10.2083 9.55225H9.33333ZM11.375 9.55225C11.375 9.79386 11.5709 9.98975 11.8125 9.98975C12.0541 9.98975 12.25 9.79386 12.25 9.55225H11.375ZM10.2813 9.98975H11.3021V9.11475H10.2813V9.98975ZM11.3021 12.396H10.2813V13.271H11.3021V12.396ZM10.2813 12.396C10.037 12.396 9.87729 12.3957 9.75462 12.3868C9.63643 12.3781 9.58638 12.3631 9.55763 12.3504L9.20273 13.1501C9.36157 13.2207 9.5242 13.2473 9.6908 13.2594C9.85279 13.2713 10.0498 13.271 10.2813 13.271V12.396ZM8.3125 11.1929C8.3125 11.4421 8.31227 11.6494 8.32312 11.8191C8.33414 11.9922 8.35788 12.1562 8.41966 12.3161L9.2358 12.0006C9.21982 11.9593 9.20471 11.8956 9.19631 11.7635C9.18773 11.6281 9.1875 11.4533 9.1875 11.1929H8.3125ZM9.55763 12.3504C9.41914 12.2889 9.29991 12.1665 9.2358 12.0006L8.41966 12.3161C8.56269 12.6861 8.84094 12.9896 9.20273 13.1501L9.55763 12.3504ZM12.3958 11.1929C12.3958 11.4533 12.3956 11.6281 12.387 11.7635C12.3786 11.8956 12.3635 11.9593 12.3475 12.0006L13.1637 12.3161C13.2255 12.1562 13.2492 11.9922 13.2602 11.8191C13.2711 11.6494 13.2708 11.4421 13.2708 11.1929H12.3958ZM11.3021 13.271C11.5335 13.271 11.7305 13.2713 11.8925 13.2594C12.0591 13.2473 12.2218 13.2207 12.3806 13.1501L12.0257 12.3504C11.9969 12.3631 11.9469 12.3781 11.8287 12.3868C11.706 12.3957 11.5463 12.396 11.3021 12.396V13.271ZM12.3475 12.0006C12.2834 12.1665 12.1642 12.2889 12.0257 12.3504L12.3806 13.1501C12.7424 12.9896 13.0206 12.6861 13.1637 12.3161L12.3475 12.0006ZM11.3021 9.98975C11.5463 9.98975 11.706 9.99004 11.8287 9.99896C11.9469 10.0077 11.9969 10.0226 12.0257 10.0354L12.3806 9.23561C12.2218 9.16509 12.0591 9.13849 11.8925 9.1263C11.7305 9.11445 11.5335 9.11475 11.3021 9.11475V9.98975ZM13.2708 11.1929C13.2708 10.9437 13.2711 10.7363 13.2602 10.5666C13.2492 10.3936 13.2255 10.2295 13.1637 10.0697L12.3475 10.3852C12.3635 10.4264 12.3786 10.4902 12.387 10.6222C12.3956 10.7576 12.3958 10.9325 12.3958 11.1929H13.2708ZM12.0257 10.0354C12.1642 10.0968 12.2834 10.2192 12.3475 10.3852L13.1637 10.0697C13.0206 9.69965 12.7424 9.39615 12.3806 9.23561L12.0257 10.0354ZM10.2813 9.11475C10.0498 9.11475 9.85279 9.11445 9.6908 9.1263C9.5242 9.13849 9.36157 9.16509 9.20273 9.23561L9.55763 10.0354C9.58638 10.0226 9.63643 10.0077 9.75462 9.99896C9.87729 9.99004 10.037 9.98975 10.2813 9.98975V9.11475ZM9.1875 11.1929C9.1875 10.9325 9.18773 10.7576 9.19631 10.6222C9.20471 10.4902 9.21982 10.4264 9.2358 10.3852L8.41966 10.0697C8.35788 10.2295 8.33414 10.3936 8.32312 10.5666C8.31227 10.7363 8.3125 10.9437 8.3125 11.1929H9.1875ZM9.20273 9.23561C8.84094 9.39615 8.56269 9.69965 8.41966 10.0697L9.2358 10.3852C9.29991 10.2192 9.41914 10.0968 9.55763 10.0354L9.20273 9.23561ZM10.2083 9.55225V8.56787H9.33333V9.55225H10.2083ZM11.375 8.56787V9.55225H12.25V8.56787H11.375ZM10.7917 8.021C11.129 8.021 11.375 8.2807 11.375 8.56787H12.25C12.25 7.76771 11.582 7.146 10.7917 7.146V8.021ZM10.2083 8.56787C10.2083 8.2807 10.4544 8.021 10.7917 8.021V7.146C10.0014 7.146 9.33333 7.76771 9.33333 8.56787H10.2083Z" fill="#F3F5FA"/>
</svg>
