<svg width="14" height="14" viewBox="0 0 14 14" fill="none" xmlns="http://www.w3.org/2000/svg">
<path opacity="0.4" d="M12.1181 10.5C12.5552 10.5 12.9029 10.225 13.215 9.84031C13.854 9.05298 12.8049 8.4238 12.4047 8.11568C11.9979 7.80243 11.5438 7.62498 11.0833 7.58333M10.4999 6.41667C11.3053 6.41667 11.9583 5.76375 11.9583 4.95833C11.9583 4.15292 11.3053 3.5 10.4999 3.5" stroke="#F3F5FA" stroke-width="0.875" stroke-linecap="round"/>
<path opacity="0.4" d="M1.88179 10.5C1.44469 10.5 1.09704 10.225 0.78488 9.84031C0.145866 9.05298 1.19504 8.4238 1.59519 8.11568C2.00196 7.80243 2.45615 7.62498 2.91665 7.58333M3.20831 6.41667C2.4029 6.41667 1.74998 5.76375 1.74998 4.95833C1.74998 4.15292 2.4029 3.5 3.20831 3.5" stroke="#F3F5FA" stroke-width="0.875" stroke-linecap="round"/>
<path d="M4.71549 8.8147C4.11945 9.18325 2.55667 9.93581 3.50851 10.8775C3.97347 11.3375 4.49132 11.6665 5.14238 11.6665H8.85751C9.50857 11.6665 10.0264 11.3375 10.4914 10.8775C11.4432 9.93581 9.88045 9.18325 9.2844 8.8147C7.88667 7.95044 6.11316 7.95044 4.71549 8.8147Z" stroke="#F3F5FA" stroke-width="0.875" stroke-linecap="round" stroke-linejoin="round"/>
<path d="M9.04161 4.37516C9.04161 5.50275 8.12753 6.41683 6.99995 6.41683C5.87236 6.41683 4.95827 5.50275 4.95827 4.37516C4.95827 3.24758 5.87236 2.3335 6.99995 2.3335C8.12753 2.3335 9.04161 3.24758 9.04161 4.37516Z" stroke="#F3F5FA" stroke-width="0.875"/>
</svg>
