<svg width="14" height="14" viewBox="0 0 14 14" fill="none" xmlns="http://www.w3.org/2000/svg">
<path d="M7.58334 12.8332H3.84468C2.94321 12.8332 2.22619 12.3945 1.58239 11.7812C0.264469 10.5256 2.42831 9.52216 3.25359 9.03076C4.39284 8.3524 5.71241 8.0734 7.00001 8.19368" stroke="#F3F5FA" stroke-width="1.05" stroke-linecap="round" stroke-linejoin="round"/>
<path d="M9.04167 3.7915C9.04167 5.24125 7.86643 6.4165 6.41667 6.4165C4.96693 6.4165 3.79167 5.24125 3.79167 3.7915C3.79167 2.34176 4.96693 1.1665 6.41667 1.1665C7.86643 1.1665 9.04167 2.34176 9.04167 3.7915Z" stroke="#F3F5FA" stroke-width="1.05"/>
<path opacity="0.4" d="M8.75874 8.97553C9.38443 8.60237 9.93054 8.75275 10.2587 8.99227C10.3932 9.0905 10.4604 9.13962 10.5 9.13962C10.5395 9.13962 10.6068 9.0905 10.7413 8.99227C11.0694 8.75275 11.6156 8.60237 12.2412 8.97553C13.0625 9.46524 13.2482 11.0809 11.3541 12.4439C10.9933 12.7036 10.813 12.8333 10.5 12.8333C10.187 12.8333 10.0067 12.7036 9.64588 12.4439C7.75173 11.0809 7.93753 9.46524 8.75874 8.97553Z" stroke="#F3F5FA" stroke-width="1.05" stroke-linecap="round"/>
</svg>
