<svg width="20" height="21" viewBox="0 0 20 21" fill="none" xmlns="http://www.w3.org/2000/svg">
<path d="M10 18.8334C14.1421 18.8334 17.5 15.4755 17.5 11.3334C17.5 7.19124 14.1421 3.83337 10 3.83337C5.85786 3.83337 2.5 7.19124 2.5 11.3334C2.5 15.4755 5.85786 18.8334 10 18.8334Z" stroke="black" stroke-width="1.5" stroke-linecap="round"/>
<path d="M4.16667 16.3334L2.5 18M15.8333 16.3334L17.5 18" stroke="black" stroke-width="1.5" stroke-linecap="round" stroke-linejoin="round"/>
<path opacity="0.4" d="M15.8333 3.47475L16.3296 3.22663C17.034 2.87443 17.2986 2.91474 17.8586 3.47475C18.4186 4.03475 18.4589 4.29937 18.1067 5.00375L17.8586 5.5M4.16667 3.47475L3.67042 3.22663C2.96604 2.87443 2.70142 2.91474 2.14142 3.47475C1.58141 4.03475 1.54111 4.29937 1.8933 5.00375L2.14142 5.5" stroke="black" stroke-width="1.5" stroke-linecap="round"/>
<path opacity="0.4" d="M10 8.41663V11.75L11.6667 13.4166" stroke="black" stroke-width="1.5" stroke-linecap="round" stroke-linejoin="round"/>
<path d="M10 3.41663V2.16663" stroke="black" stroke-width="1.5" stroke-linecap="round" stroke-linejoin="round"/>
<path d="M8.33333 2.16663H11.6667" stroke="black" stroke-width="1.5" stroke-linecap="round" stroke-linejoin="round"/>
</svg>
