<svg width="20" height="20" viewBox="0 0 20 20" fill="none" xmlns="http://www.w3.org/2000/svg">
<path d="M15 1.66663V3.33329M5 1.66663V3.33329" stroke="black" stroke-width="1.5" stroke-linecap="round" stroke-linejoin="round"/>
<path opacity="0.4" d="M8.33333 14.1667L8.33333 11.1227C8.33333 10.963 8.21938 10.8334 8.07882 10.8334H7.5M11.3581 14.1667L12.4868 11.1244C12.5396 10.9821 12.4273 10.8334 12.2673 10.8334H10.8333" stroke="black" stroke-width="1.5" stroke-linecap="round"/>
<path d="M2.08333 10.2027C2.08333 6.57162 2.08333 4.75607 3.12676 3.62803C4.17019 2.5 5.84957 2.5 9.20833 2.5H10.7917C14.1504 2.5 15.8298 2.5 16.8732 3.62803C17.9167 4.75607 17.9167 6.57162 17.9167 10.2027V10.6307C17.9167 14.2617 17.9167 16.0773 16.8732 17.2053C15.8298 18.3333 14.1504 18.3333 10.7917 18.3333H9.20833C5.84957 18.3333 4.17019 18.3333 3.12676 17.2053C2.08333 16.0773 2.08333 14.2617 2.08333 10.6307V10.2027Z" stroke="black" stroke-width="1.5" stroke-linecap="round" stroke-linejoin="round"/>
<path opacity="0.4" d="M5 6.66663H15" stroke="black" stroke-width="1.5" stroke-linecap="round" stroke-linejoin="round"/>
</svg>
