<svg width="16" height="16" viewBox="0 0 16 16" fill="none" xmlns="http://www.w3.org/2000/svg">
<path d="M12 1.33334V2.66668M4 1.33334V2.66668" stroke="#090909" stroke-linecap="round" stroke-linejoin="round"/>
<path d="M6.66667 11.3333L6.66666 8.89812C6.66666 8.77032 6.5755 8.66666 6.46305 8.66666H6M9.08647 11.3333L9.98947 8.89946C10.0317 8.78566 9.94187 8.66666 9.8138 8.66666H8.66667" stroke="#090909" stroke-linecap="round"/>
<path d="M1.66666 8.16213C1.66666 5.25729 1.66666 3.80485 2.50141 2.90243C3.33616 2 4.67966 2 7.36666 2H8.63333C11.3203 2 12.6639 2 13.4986 2.90243C14.3333 3.80485 14.3333 5.25729 14.3333 8.16213V8.50453C14.3333 11.4094 14.3333 12.8618 13.4986 13.7643C12.6639 14.6667 11.3203 14.6667 8.63333 14.6667H7.36666C4.67966 14.6667 3.33616 14.6667 2.50141 13.7643C1.66666 12.8618 1.66666 11.4094 1.66666 8.50453V8.16213Z" stroke="#090909" stroke-linecap="round" stroke-linejoin="round"/>
<path d="M4 5.33334H12" stroke="#090909" stroke-linecap="round" stroke-linejoin="round"/>
</svg>
