<svg width="20" height="20" viewBox="0 0 20 20" fill="none" xmlns="http://www.w3.org/2000/svg">
<path d="M5.62496 12.3808C5.62488 11.3023 5.62482 10.3132 5.73321 9.50708C5.85263 8.61883 6.13358 7.67928 6.90637 6.90649C7.67916 6.1337 8.61876 5.85275 9.50693 5.73333C10.3132 5.62494 11.3023 5.62501 12.3808 5.62508H14.2443C14.4909 5.62508 14.6143 5.62508 14.6884 5.54524C14.7626 5.4654 14.7538 5.34525 14.736 5.10495C14.7207 4.8963 14.701 4.69918 14.6759 4.51295C14.5682 3.71332 14.3526 3.04883 13.8931 2.48894C13.7287 2.28851 13.5448 2.10473 13.3444 1.94025C12.7537 1.4554 12.0464 1.24221 11.1873 1.14065C10.3504 1.04173 9.29259 1.04174 7.9574 1.04175H7.87587C6.54065 1.04174 5.48285 1.04173 4.646 1.14065C3.78686 1.2422 3.07961 1.4554 2.48882 1.94025C2.28839 2.10473 2.10461 2.28851 1.94013 2.48894C1.45528 3.07973 1.24208 3.78698 1.14053 4.64612C1.04161 5.48297 1.04162 6.54077 1.04163 7.87598V7.95751C1.04162 9.29275 1.04161 10.3505 1.14053 11.1873C1.24208 12.0465 1.45528 12.7537 1.94013 13.3446C2.10461 13.545 2.28839 13.7287 2.48882 13.8932C3.04871 14.3527 3.7132 14.5682 4.51283 14.676C4.69906 14.7011 4.89618 14.7207 5.10483 14.7362C5.34513 14.7538 5.46527 14.7627 5.54512 14.6885C5.62496 14.6143 5.62496 14.491 5.62496 14.2443V12.3808Z" fill="black"/>
<path opacity="0.4" fill-rule="evenodd" clip-rule="evenodd" d="M10.4612 7.5759C10.519 8.01701 10.2083 8.4215 9.76722 8.47934C9.23722 8.54884 8.97388 8.66525 8.80105 8.80734C8.64863 8.93275 8.54138 9.09634 8.47022 9.45034C8.38263 9.8865 7.95803 10.1691 7.52186 10.0815C7.08567 9.99392 6.80311 9.56925 6.89072 9.13309C7.01391 8.51975 7.26586 7.98411 7.77757 7.56315C8.27952 7.15024 8.88263 6.97046 9.55772 6.88193C9.99888 6.82409 10.4034 7.13479 10.4612 7.5759ZM15.3719 7.5759C15.4297 7.13479 15.8342 6.82409 16.2753 6.88193C16.9504 6.97046 17.5535 7.15024 18.0555 7.56315C18.5672 7.98411 18.8191 8.51975 18.9423 9.13309C19.03 9.56925 18.7474 9.99392 18.3112 10.0815C17.875 10.1691 17.4504 9.8865 17.3628 9.45034C17.2917 9.09634 17.1844 8.93275 17.032 8.80734C16.8592 8.66525 16.5958 8.54884 16.0658 8.47934C15.6247 8.4215 15.314 8.01701 15.3719 7.5759ZM10.9026 7.68064C10.9026 7.23574 11.2633 6.87509 11.7082 6.87509H14.1248C14.5697 6.87509 14.9304 7.23574 14.9304 7.68064C14.9304 8.12553 14.5697 8.48617 14.1248 8.48617H11.7082C11.2633 8.48617 10.9026 8.12553 10.9026 7.68064ZM7.68049 10.9028C8.12537 10.9028 8.48605 11.2635 8.48605 11.7083V14.125C8.48605 14.5698 8.12537 14.9305 7.68049 14.9305C7.2356 14.9305 6.87494 14.5698 6.87494 14.125V11.7083C6.87494 11.2635 7.2356 10.9028 7.68049 10.9028ZM18.1525 10.9028C18.5975 10.9028 18.9581 11.2635 18.9581 11.7083V14.125C18.9581 14.5698 18.5975 14.9305 18.1525 14.9305C17.7076 14.9305 17.347 14.5698 17.347 14.125V11.7083C17.347 11.2635 17.7076 10.9028 18.1525 10.9028ZM7.52186 15.7518C7.95803 15.6643 8.38263 15.9468 8.47022 16.383C8.54138 16.737 8.64863 16.9006 8.80105 17.026C8.97388 17.1681 9.23722 17.2845 9.76722 17.354C10.2083 17.4118 10.519 17.8163 10.4612 18.2574C10.4034 18.6986 9.99888 19.0093 9.55772 18.9514C8.88263 18.8629 8.27952 18.6831 7.77757 18.2702C7.26585 17.8493 7.01391 17.3136 6.89072 16.7003C6.80311 16.2641 7.08567 15.8394 7.52186 15.7518ZM18.3112 15.7518C18.7474 15.8394 19.03 16.2641 18.9423 16.7003C18.8191 17.3136 18.5672 17.8493 18.0555 18.2702C17.5535 18.6831 16.9504 18.8629 16.2753 18.9514C15.8342 19.0093 15.4297 18.6986 15.3719 18.2574C15.314 17.8163 15.6247 17.4118 16.0658 17.354C16.5958 17.2845 16.8592 17.1681 17.032 17.026C17.1844 16.9006 17.2917 16.737 17.3628 16.383C17.4504 15.9468 17.875 15.6643 18.3112 15.7518ZM10.9026 18.1527C10.9026 17.7078 11.2633 17.3472 11.7082 17.3472H14.1248C14.5697 17.3472 14.9304 17.7078 14.9304 18.1527C14.9304 18.5976 14.5697 18.9583 14.1248 18.9583H11.7082C11.2633 18.9583 10.9026 18.5976 10.9026 18.1527Z" fill="black"/>
</svg>
