<svg width="17" height="17" viewBox="0 0 17 17" fill="none" xmlns="http://www.w3.org/2000/svg">
<path d="M4.95834 14.875V12.75" stroke="black" stroke-width="1.0625" stroke-linecap="round" stroke-linejoin="round"/>
<path d="M12.0417 14.875V10.625" stroke="black" stroke-width="1.0625" stroke-linecap="round" stroke-linejoin="round"/>
<path d="M12.0417 4.25V2.125" stroke="black" stroke-width="1.0625" stroke-linecap="round" stroke-linejoin="round"/>
<path d="M4.95834 6.375V2.125" stroke="black" stroke-width="1.0625" stroke-linecap="round" stroke-linejoin="round"/>
<path d="M4.95834 12.75C4.29825 12.75 3.96821 12.75 3.70787 12.6422C3.36075 12.4984 3.08496 12.2226 2.94117 11.8755C2.83334 11.6151 2.83334 11.2851 2.83334 10.625C2.83334 9.9649 2.83334 9.63489 2.94117 9.37451C3.08496 9.02743 3.36075 8.7516 3.70787 8.60781C3.96821 8.5 4.29825 8.5 4.95834 8.5C5.61842 8.5 5.94846 8.5 6.20881 8.60781C6.55593 8.7516 6.83171 9.02743 6.9755 9.37451C7.08334 9.63489 7.08334 9.9649 7.08334 10.625C7.08334 11.2851 7.08334 11.6151 6.9755 11.8755C6.83171 12.2226 6.55593 12.4984 6.20881 12.6422C5.94846 12.75 5.61842 12.75 4.95834 12.75Z" stroke="black" stroke-width="1.0625"/>
<path d="M12.0417 8.5C11.3816 8.5 11.0516 8.5 10.7912 8.39219C10.4441 8.2484 10.1683 7.97257 10.0245 7.62549C9.91666 7.36511 9.91666 7.03508 9.91666 6.375C9.91666 5.71492 9.91666 5.38488 10.0245 5.12453C10.1683 4.77741 10.4441 4.50162 10.7912 4.35784C11.0516 4.25 11.3816 4.25 12.0417 4.25C12.7018 4.25 13.0318 4.25 13.2922 4.35784C13.6392 4.50162 13.9151 4.77741 14.0589 5.12453C14.1667 5.38488 14.1667 5.71492 14.1667 6.375C14.1667 7.03508 14.1667 7.36511 14.0589 7.62549C13.9151 7.97257 13.6392 8.2484 13.2922 8.39219C13.0318 8.5 12.7018 8.5 12.0417 8.5Z" stroke="black" stroke-width="1.0625"/>
</svg>
