<svg width="12" height="12" viewBox="0 0 12 12" fill="none" xmlns="http://www.w3.org/2000/svg">
<path d="M1 2.25H4.37868C4.77651 2.25 5.15805 2.40804 5.43935 2.68934L7 4.25" stroke="white" stroke-width="0.75" stroke-linecap="round" stroke-linejoin="round"/>
<path d="M2.5 6.75H1" stroke="white" stroke-width="0.75" stroke-linecap="round" stroke-linejoin="round"/>
<path d="M4.25 3.75L5.25 4.75C5.52615 5.02615 5.52615 5.47385 5.25 5.75C4.97386 6.02615 4.52615 6.02615 4.25 5.75L3.5 5C3.06966 5.43035 2.38835 5.47875 1.90147 5.1136L1.75 5" stroke="white" stroke-width="0.75" stroke-linecap="round" stroke-linejoin="round"/>
<path d="M2.5 5.5V7.75C2.5 8.6928 2.5 9.1642 2.7929 9.4571C3.08579 9.75 3.55719 9.75 4.5 9.75H9C9.9428 9.75 10.4142 9.75 10.7071 9.4571C11 9.1642 11 8.6928 11 7.75V6.25C11 5.3072 11 4.83578 10.7071 4.54289C10.4142 4.25 9.9428 4.25 9 4.25H4.75" stroke="white" stroke-width="0.75" stroke-linecap="round" stroke-linejoin="round"/>
<path d="M7.625 7C7.625 7.48325 7.23325 7.875 6.75 7.875C6.26675 7.875 5.875 7.48325 5.875 7C5.875 6.51675 6.26675 6.125 6.75 6.125C7.23325 6.125 7.625 6.51675 7.625 7Z" stroke="white" stroke-width="0.75" stroke-linecap="round" stroke-linejoin="round"/>
</svg>
