<svg width="20" height="20" viewBox="0 0 20 20" fill="none" xmlns="http://www.w3.org/2000/svg">
<path d="M14.5833 4.16663C15.2737 4.16663 15.8333 4.72627 15.8333 5.41663C15.8333 6.10698 15.2737 6.66663 14.5833 6.66663C13.893 6.66663 13.3333 6.10698 13.3333 5.41663C13.3333 4.72627 13.893 4.16663 14.5833 4.16663Z" stroke="black" stroke-width="1.25" stroke-linecap="round" stroke-linejoin="round"/>
<path d="M2.31187 9.28654C1.47591 10.2202 1.45792 11.6288 2.22514 12.6197C3.7476 14.586 5.41396 16.2524 7.38028 17.7748C8.37117 18.542 9.77976 18.524 10.7134 17.6881C13.2483 15.4185 15.5696 13.0465 17.8099 10.4399C18.0314 10.1822 18.1699 9.86638 18.201 9.52796C18.3385 8.03161 18.621 3.72052 17.4503 2.54974C16.2794 1.37897 11.9683 1.66143 10.472 1.79893C10.1336 1.83003 9.81776 1.96857 9.56001 2.19005C6.95344 4.43034 4.58152 6.75172 2.31187 9.28654Z" stroke="black" stroke-width="1.25"/>
<path opacity="0.4" d="M12.1083 8.77571C12.3525 8.53179 12.3528 8.13608 12.109 7.8918C11.8651 7.64752 11.4693 7.64719 11.2251 7.89107L12.1083 8.77571ZM6.2251 12.8829C5.98081 13.1267 5.98049 13.5225 6.22436 13.7667C6.46825 14.011 6.86397 14.0114 7.10825 13.7675L6.2251 12.8829ZM10.887 10.1307C10.7957 10.4636 10.9915 10.8075 11.3244 10.8988C11.6573 10.9901 12.0012 10.7943 12.0925 10.4614L10.887 10.1307ZM7.35311 11.5343C7.38346 11.1905 7.12932 10.8871 6.78548 10.8568C6.44164 10.8264 6.1383 11.0805 6.10795 11.4244L7.35311 11.5343ZM9.68017 10.3152C9.35542 9.99096 9.29867 9.79646 9.29401 9.71038C9.29051 9.64513 9.31042 9.52254 9.51951 9.31388L8.63634 8.42921C8.28859 8.77646 8.01616 9.22479 8.04584 9.77746C8.07441 10.3094 8.37642 10.7799 8.79701 11.1998L9.68017 10.3152ZM9.51951 9.31388C9.82559 9.00829 10.3406 9.00213 10.6694 9.33046L11.5526 8.44579C10.7494 7.64397 9.44392 7.62297 8.63634 8.42921L9.51951 9.31388ZM8.90676 12.438C8.65909 12.6852 8.46276 12.7213 8.3153 12.705C8.13928 12.6855 7.91186 12.576 7.6637 12.3283L6.78054 13.213C7.14985 13.5816 7.62546 13.8865 8.17816 13.9475C8.75942 14.0116 9.31751 13.7942 9.78992 13.3225L8.90676 12.438ZM8.79701 11.1998C9.12701 11.5292 9.21076 11.7454 9.21959 11.8719C9.22659 11.9728 9.19467 12.1505 8.90676 12.438L9.78992 13.3225C10.2223 12.891 10.5081 12.3794 10.4665 11.7847C10.4268 11.2156 10.0955 10.7298 9.68017 10.3152L8.79701 11.1998ZM11.5526 9.33046L12.1083 8.77571L11.2251 7.89107L10.6694 8.44579L11.5526 9.33046ZM6.78054 12.3283L6.2251 12.8829L7.10825 13.7675L7.6637 13.213L6.78054 12.3283ZM10.6694 9.33046C10.8908 9.55138 10.9613 9.85988 10.887 10.1307L12.0925 10.4614C12.2828 9.76738 12.0997 8.99196 11.5526 8.44579L10.6694 9.33046ZM7.6637 12.3283C7.42581 12.0909 7.33046 11.7909 7.35311 11.5343L6.10795 11.4244C6.05171 12.0616 6.28925 12.7225 6.78054 13.213L7.6637 12.3283Z" fill="black"/>
</svg>
