<svg width="20" height="20" viewBox="0 0 20 20" fill="none" xmlns="http://www.w3.org/2000/svg">
<path d="M11.6667 11.6665L13.75 13.7498" stroke="#F3F5FA" stroke-width="1.25" stroke-linejoin="round"/>
<path d="M13.6944 15.4378C13.213 14.9564 13.213 14.1759 13.6944 13.6946C14.1758 13.2131 14.9563 13.2131 15.4377 13.6946L17.9723 16.2291C18.4537 16.7106 18.4537 17.4911 17.9723 17.9724C17.4909 18.4538 16.7104 18.4538 16.229 17.9724L13.6944 15.4378Z" stroke="#F3F5FA" stroke-width="1.25" stroke-linecap="round"/>
<path d="M13.3333 7.49984C13.3333 4.27818 10.7217 1.6665 7.49999 1.6665C4.27833 1.6665 1.66666 4.27818 1.66666 7.49984C1.66666 10.7215 4.27833 13.3332 7.49999 13.3332C10.7217 13.3332 13.3333 10.7215 13.3333 7.49984Z" stroke="#F3F5FA" stroke-width="1.25" stroke-linejoin="round"/>
</svg>
