<svg width="16" height="16" viewBox="0 0 16 16" fill="none" xmlns="http://www.w3.org/2000/svg">
<path d="M7.9974 0.833344C8.69693 0.833344 9.24793 1.3617 9.59966 2.07462L10.7744 4.44345C10.81 4.51676 10.8945 4.62 11.0214 4.71444C11.1482 4.80878 11.2724 4.86082 11.3541 4.87454L13.4805 5.23076C14.2486 5.35983 14.8924 5.73634 15.1014 6.39194C15.3102 7.04701 15.0043 7.72774 14.4519 8.28108L14.4513 8.28168L12.7994 9.94728C12.7339 10.0133 12.6606 10.1376 12.6146 10.2996C12.5689 10.4605 12.5649 10.6071 12.5856 10.7018L12.5859 10.7031L13.0585 12.7636C13.2545 13.6211 13.1895 14.4715 12.5847 14.9161C11.9778 15.3622 11.1485 15.1645 10.395 14.7157L8.40173 13.526C8.318 13.476 8.17426 13.4355 8.00073 13.4355C7.82846 13.4355 7.68173 13.4755 7.59253 13.5273L7.59126 13.5281L5.60192 14.7155C4.84936 15.1658 4.02102 15.36 3.41407 14.9135C2.80966 14.4688 2.74142 13.62 2.93807 12.7631L3.4106 10.7031L3.41088 10.7018C3.4316 10.6071 3.42755 10.4605 3.38186 10.2996C3.33586 10.1376 3.26252 10.0133 3.19705 9.94728L1.5439 8.28041C0.995098 7.72708 0.690138 7.04694 0.897298 6.39284C1.10506 5.73684 1.74762 5.35988 2.51622 5.23072L4.64088 4.8748L4.64155 4.87469C4.71944 4.86118 4.8418 4.80972 4.96832 4.71513C5.09507 4.62037 5.17972 4.51691 5.21541 4.44345L5.21721 4.43979L6.39041 2.07399L6.39088 2.07306C6.746 1.36073 7.29866 0.833344 7.9974 0.833344Z" fill="#FFB509"/>
</svg>
