<svg width="18" height="18" viewBox="0 0 18 18" fill="none" xmlns="http://www.w3.org/2000/svg">
<path d="M12 10.125C12 10.7463 12.5037 11.25 13.125 11.25C13.7463 11.25 14.25 10.7463 14.25 10.125C14.25 9.5037 13.7463 9 13.125 9C12.5037 9 12 9.5037 12 10.125Z" stroke="white" stroke-width="1.125" stroke-linecap="round" stroke-linejoin="round"/>
<path d="M7.5 5.25004H13.5M13.5 5.25004H15C15.8284 5.25004 16.5 5.92161 16.5 6.75004V14.25C16.5 15.0784 15.8284 15.75 15 15.75H9M13.5 5.25004V3.75C13.5 2.92157 12.8284 2.25 12 2.25H3C2.17157 2.25 1.5 2.92157 1.5 3.75V9" stroke="white" stroke-width="1.125" stroke-linecap="round" stroke-linejoin="round"/>
<path d="M6.75 13.125H4.125M4.125 13.125H1.5M4.125 13.125V15.75M4.125 13.125V10.5" stroke="white" stroke-width="1.125" stroke-linecap="round" stroke-linejoin="round"/>
</svg>
